<?xml version="1.0" encoding="utf-8"?>
<!-- Generator: Adobe Illustrator 17.1.0, SVG Export Plug-In . SVG Version: 6.00 Build 0)  -->
<!DOCTYPE svg PUBLIC "-//W3C//DTD SVG 1.1//EN" "http://www.w3.org/Graphics/SVG/1.1/DTD/svg11.dtd">
<svg version="1.1" id="Vrstva_1" xmlns="http://www.w3.org/2000/svg" xmlns:xlink="http://www.w3.org/1999/xlink" x="0px" y="0px"
	 viewBox="0 0 245 105.8" enable-background="new 0 0 245 105.8" xml:space="preserve">
<g>
	<defs>
		<rect id="SVGID_1_" x="0" y="0" width="244.9" height="105.8"/>
	</defs>
	<clipPath id="SVGID_2_">
		<use xlink:href="#SVGID_1_"  overflow="visible"/>
	</clipPath>
	<g clip-path="url(#SVGID_2_)">
		<defs>
			<rect id="SVGID_3_" x="0" y="-20.8" width="245" height="157.7"/>
		</defs>
		<clipPath id="SVGID_4_">
			<use xlink:href="#SVGID_3_"  overflow="visible"/>
		</clipPath>
		<g clip-path="url(#SVGID_4_)">
			<defs>
				<rect id="SVGID_5_" x="5.3" y="-19.3" width="279" height="155"/>
			</defs>
			<clipPath id="SVGID_6_">
				<use xlink:href="#SVGID_5_"  overflow="visible"/>
			</clipPath>
			<g clip-path="url(#SVGID_6_)">
				<rect x="-4.5" y="-28.7" fill="#41B39F" width="298.3" height="174.1"/>
				<polygon fill="#FFFFFF" points="149.2,145.4 121.6,145.4 190.4,-29 218.1,-29 				"/>
				<polygon fill="#FFFFFF" points="5.6,145.4 -22,145.4 46.8,-29 74.5,-29 				"/>
				<polygon fill="#25333C" points="29.8,145.4 2.2,145.4 71,-29 98.6,-29 				"/>
				<polygon fill="#F2E30A" points="77.7,145.4 50.1,145.4 118.9,-29 146.5,-29 				"/>
				<polygon fill="#F2E30A" points="-18.1,145.4 -45.7,145.4 23.1,-29 50.7,-29 				"/>
				<polygon fill="#25333C" points="125.6,145.4 98,145.4 166.8,-29 194.4,-29 				"/>
				<polygon fill="#F2E30A" points="173.5,145.4 145.9,145.4 214.7,-29 242.3,-29 				"/>
				<polygon fill="#25333C" points="221.4,145.4 193.8,145.4 262.6,-29 290.2,-29 				"/>
				<polygon fill="#F2E30A" points="269.3,145.4 241.7,145.4 310.5,-29 338.1,-29 				"/>
			</g>
		</g>
	</g>
</g>
<rect x="12.6" y="10" fill="#FFFFFF" width="222" height="85.8"/>
<g>
	<g>
		<path fill="#25333C" d="M64.8,36.4h0.4c1.9,0,3.8,0.6,5.9,1.8c1.2,1.3,2.1,2.5,2.6,3.8c0,1.8-2.7,4.2-8.2,7.1
			c-3.3,1.9-6.1,3.3-8.2,4.2c-1.9,1.1-5.4,2.7-10.3,4.8c-0.9,0.3-1.5,0.7-1.8,1.2c-1.1,1.8-2.1,3.3-2.9,4.3c0,0.1-1,1.5-2.8,4.1
			c-0.4,0.6-0.8,1.2-1.4,1.8h-0.2v-0.2l-0.2,0.1h-0.2l-1.2-0.8l-0.4,0.1c0-0.3-0.3-0.4-0.9-0.5c0-0.1-0.2-0.4-0.5-0.6l-0.1-0.3h-0.1
			l-0.2,0.2L34,67.2c0.6-0.6,0.9-1,0.9-1c0.7-1.1,1.6-2.5,2.8-4h0.1v0.2c-0.1,0-0.2,0.2-0.3,0.5v0.2c0.5-0.5,1.4-1.8,2.6-3.8
			l1.3-1.7v-0.1h-0.1c-0.1,0-0.1,0-0.1,0.1c-0.5-0.1-0.7-0.1-0.7-0.2c0.1-0.1,0.2-0.1,0.4-0.1v-0.2c-0.2,0-0.3-0.1-0.5-0.3
			c0-0.1,0.7-0.3,2.1-0.9c0.7-1.2,1.8-2.9,3.4-5c0.5-0.9,1-1.6,1.4-2.1c0.4-0.9,1-1.7,1.7-2.3c0.6-0.8,0.9-1.4,1.1-2
			c0.1,0,0.4-0.4,0.9-1.3l0.2-0.1L51.1,43c0-0.1,0.1-0.2,0.2-0.2v-0.2c-0.6,0-2.8,0.9-6.6,2.7c-0.1-0.1-0.1-0.2-0.1-0.2l-0.5,0.1
			l0.1-0.4c-0.2,0-0.5-0.3-0.8-0.8c-0.1,0-0.3-0.1-0.6-0.4c-0.3,0-0.4-0.1-0.4-0.2v-0.2h0.2v-0.2c-0.2,0-0.3-0.2-0.3-0.5
			c0.4-0.4,1.4-1.1,3.2-1.8c1-0.4,1.9-0.7,2.7-1.1c0.3,0,0.6-0.2,0.9-0.6c0-0.1,0.1-0.1,0.4-0.2h0.1v0.2h-0.2v0.2
			c1.8-0.4,2.8-0.8,2.8-1c0-0.1,0.4-0.3,1.3-0.4c0,0.1,0.1,0.2,0.2,0.2c0.3,0,1.2-0.2,2.9-0.6l0.1-0.2h-0.2v-0.2h0.1l0.2,0.1
			c0.2-0.2,1.5-0.5,4-0.8c0.5,0.1,1,0.2,1.7,0.2L64.8,36.4z M34.8,66.7l-0.2,0.2h0.2C34.8,66.9,34.8,66.8,34.8,66.7L34.8,66.7z
			 M35.8,65.3c-0.3,0.5-0.5,0.7-0.6,0.7v0.2C35.4,66.2,35.7,65.9,35.8,65.3L35.8,65.3z M40.3,58.5C40.3,58.6,40.3,58.6,40.3,58.5
			c-0.3,0.8-0.7,1.4-1.2,1.9l-0.2,0.1v-0.1C39.6,59.3,40.1,58.7,40.3,58.5z M42.9,54.6L42.9,54.6L42.9,54.6c0.1,0.2,0,0.2-0.2,0.3
			h-0.1v-0.1C42.7,54.7,42.8,54.7,42.9,54.6z M43.3,54L43.3,54c-0.1,0.2-0.2,0.4-0.2,0.6c-0.1,0-0.2-0.1-0.2-0.2v-0.1
			C42.9,54.3,43.1,54.2,43.3,54z M48.5,39.3l0.1,0.2l-0.2,0.1h-0.2v-0.2C48.3,39.4,48.4,39.3,48.5,39.3z M63.1,40.1L63.1,40.1
			c-1.6,0.1-3.8,0.5-6.6,1.1c-0.3,0-0.4,0.1-0.4,0.2l0.4,0.5c-0.3,0.7-0.8,1.5-1.6,2.6c-1.9,3.2-3.5,5.6-4.8,7.3
			c0,0.1,0,0.1-0.1,0.2l0.6-0.2l0.1,0.2c-0.6,0.2-1,0.4-1,0.5h0.1c0.1,0,0.8-0.3,2-0.9c0.2,0,0.4-0.1,0.6-0.3c0.7-0.2,1-0.4,1-0.5
			h-0.2C53.1,51,52.9,51,52.9,51v-0.1c0.4-0.4,0.9-0.6,1.4-0.7v0.2c-0.2,0-0.2,0.1-0.2,0.2v0.1h0.1c0.3-0.2,0.4-0.3,0.5-0.3
			l-0.1-0.2c0-0.1,0.1-0.2,0.2-0.2c0.1,0.1,0.2,0.1,0.2,0.1l-0.1-0.2l0.9-0.5l0.9-0.6c0.2,0,0.3-0.1,0.3-0.2H57c0.1,0,0.1,0,0.1,0.1
			l1-0.5c0.1,0.1,0.2,0.1,0.2,0.1l1.5-0.6l-0.1-0.2c0-0.1,0.1-0.2,0.2-0.2l0.1,0.2c0.1,0,0.2-0.2,0.4-0.5h0.1l0.2,0.1
			C60.8,47,60.9,47,61,47v-0.1h-0.2c0.2-0.3,1-0.9,2.6-1.7c0.1,0,0.4-0.1,0.7-0.3c0.1,0.2,0.1,0.3,0.2,0.3l0.1-0.2
			c-0.1,0-0.1,0-0.1-0.1h0.1l0.2,0.1c0-0.1,0.1-0.2,0.2-0.2v-0.1c-0.2,0-0.2-0.1-0.2-0.2l0.2-0.1c0,0.1,0.1,0.2,0.2,0.2H65l-0.1-0.2
			v-0.2c0.1,0,0.2,0.1,0.2,0.2c0.3,0,0.6-0.2,0.9-0.5v-0.1c-0.2,0-0.3-0.1-0.3-0.2l0.5-0.3h0.1v0.1L66,44.1h0.1
			c0.2-0.2,0.7-0.5,1.5-1c1-0.8,1.6-1.3,1.6-1.4c0-0.1,0.1-0.2,0.2-0.2v-0.1c0-0.1-0.1-0.2-0.2-0.2c0,0.2-0.3,0.4-0.9,0.8
			c-0.2,0.3-0.6,0.6-1.3,1v-0.1c1.8-1.5,2.7-2.5,2.7-2.9c-0.5-0.2-1.6-0.3-3.2-0.4l-0.2,0.1l-0.3-0.1C64.6,39.9,63.6,40,63.1,40.1z
			 M50,56.3L50,56.3c0.2,0,0.2,0,0.2-0.2h-0.1C50,56.2,50,56.2,50,56.3z M51.7,51.3c0.1,0,0.2,0.1,0.2,0.2l-0.2,0.1h-0.2
			C51.5,51.5,51.6,51.4,51.7,51.3z M53.5,50.7L53.5,50.7l0.3,0.1l0.1-0.2h-0.1C53.6,50.7,53.5,50.7,53.5,50.7z M57.6,52.6v0.2
			c0.3-0.1,0.5-0.3,0.5-0.3H58C57.8,52.6,57.7,52.6,57.6,52.6z M58.2,52.4L58.2,52.4c0.4-0.1,0.5-0.2,0.5-0.3h-0.1
			C58.3,52.3,58.2,52.4,58.2,52.4z M58.9,52L58.9,52l0.2,0.1l0.1-0.2h-0.1C59,51.9,58.9,52,58.9,52z M63.4,45.5L63.4,45.5l0.2,0.1
			l0.1-0.3h-0.1C63.5,45.2,63.5,45.3,63.4,45.5z"/>
		<path fill="#25333C" d="M91.2,36.3h0.1c1,0.5,1.7,1,1.9,1.4l0.8,1.4v0.1c0,0.2-0.5,0.3-1.4,0.3h-0.2L92,39.5
			c-0.8,0.1-2.4,0.5-4.7,1.1c-3.1,1-6.3,2.5-9.6,4.6c-1.5,1-3,2.3-4.4,3.7c-1.1,1.2-1.6,1.9-1.6,2.2H72c0.1,0,0.2,0,0.2,0.1l0.4-0.1
			h0.7c2.2-0.3,3.3-0.5,3.3-0.6v-0.1h0.1l0.1,0.1c0-0.3,1-0.5,3-0.6c0-0.1,0.1-0.1,0.1-0.1c0.1,0,0.1,0,0.1,0.1l0.1-0.1
			c0.1,0,0.2,0.1,0.2,0.1c0-0.1,0.1-0.1,0.2-0.2h0.2l0.1,0.1c0-0.1,0.1-0.2,0.2-0.2c0.1,0,0.2,0.1,0.2,0.1c0-0.2,1.4-0.4,4.2-0.6
			c0-0.1,0-0.1,0.1-0.1c0.1,0,0.1,0,0.1,0.1c0.5-0.1,1.3-0.2,2.4-0.2h0.1l0.4-0.1v0.1c0.1,0,0.1,0,0.1-0.1c2.9,0,4.9,0.9,5.9,2.8
			c0.1,0.1,0.5,0.6,1.1,1.7c0,0,0,0.1-0.1,0.1l0.1,0.1v0.1c0,1.5-3,3.8-9,7.1C80.2,64,74,66.9,67.9,69.4l-0.3,0.1
			c0-0.2-0.2-0.4-0.6-0.6l-0.1-0.2v-0.1c0-0.1,0-0.1,0.1-0.1c0-0.1-0.2-0.4-0.5-0.8c0-0.2-0.1-0.4-0.3-0.5v-0.2
			c-0.1,0-0.2,0-0.2-0.1c0.2,0,0.3-0.1,0.3-0.2h0.1l0.1,0.1l0.6-0.4c0.1,0,0.2,0.1,0.2,0.1l-0.1-0.1c0.1,0,0.1,0,0.1-0.1l0.1,0.1
			c0.7-0.3,1.1-0.6,1.1-0.8h0.1l0.1,0.1c0.1-0.1,0.7-0.5,1.9-1.1h0.1c0.1,0,0.1,0,0.1,0.1l1.5-0.6h0.1v-0.1l-0.1-0.1
			c0.2-0.1,0.3-0.1,0.4-0.1H73v-0.1H73l-0.1,0.1v-0.1c0-0.1,0.3-0.2,0.9-0.4c0-0.1,0.2-0.2,0.6-0.3c0-0.2,0.2-0.3,0.6-0.4h0.6
			c0-0.1,0.5-0.3,1.3-0.6l2-1.1c0.4-0.2,0.6-0.3,0.6-0.4l0.1,0.1h0.1v-0.1h-0.1v-0.1c0-0.1,0.4-0.3,1.1-0.6v-0.1h-0.2
			c0,0.1-0.1,0.2-0.2,0.2l-0.1-0.1c1.1-0.7,1.8-1,2-1v0.1c0,0.1-0.1,0.1-0.2,0.1v0.1H82c0.3-0.1,0.4-0.2,0.4-0.3h-0.1v-0.1
			c0.3-0.2,0.8-0.5,1.7-1c0-0.1,0.2-0.2,0.6-0.4l0.1,0.1c0.1-0.1,0.2-0.1,0.2-0.1v0.1h-0.1v0.1h0.1c0.3,0,0.9-0.4,1.8-1.1h-0.1
			c0,0.1-0.1,0.2-0.4,0.2c0,0.1-0.3,0.3-0.9,0.6l-0.1-0.2c0.9-0.6,1.6-1,2-1.1c0-0.2,0.3-0.4,0.9-0.6c0.3-0.2,0.5-0.4,0.6-0.4
			c-0.2,0.3-0.6,0.5-1.2,0.9v0.1h0.1c0.8-0.3,1.6-0.8,2.3-1.6h-0.1c-0.6,0.4-1,0.6-1.1,0.6c0.7-0.6,1.6-1.4,2.8-2.4v-0.1
			c-0.2,0-0.9,0-2.2-0.1c-0.1,0-0.5,0-1.1,0.1c-0.1,0-0.1,0-0.1-0.1c-2.2,0.2-5.7,0.7-10.6,1.6c-0.4,0-0.9,0-1.5,0.1v-0.1
			C75.8,54,75.4,54,74.8,54h-1.6c-1.8,0-2.9-0.7-3.5-2.1c0-0.4-0.2-0.7-0.6-1.1c-0.1-0.4-0.2-0.7-0.2-0.8v-0.1
			c0.3-0.2,0.5-0.5,0.6-1.1C70,48,70.6,47.4,71,47c2.2-2.2,3.6-3.3,4.3-3.5l2.1-1.5c0-0.2,0.1-0.3,0.2-0.3l0.1,0.1v0.1h-0.2v0.1h0.1
			c0.4-0.3,1.2-0.7,2.5-1.3c0-0.1,0.2-0.2,0.6-0.4v-0.2l-0.4,0.1l-0.1-0.1c0.4-0.2,0.7-0.5,0.8-0.7l2.2-0.9h0.1c0,0,0.1,0,0.1,0.1
			l0.1-0.1h0.1v0.1l-0.1,0.2c0.2,0.1,0.4,0.1,0.5,0.1c0-0.1,0.3-0.3,0.9-0.5v-0.1c-0.1,0-0.2,0-0.2-0.1V38c0-0.2,1.1-0.5,3.2-1.1
			C89.6,36.5,90.7,36.3,91.2,36.3z M67.9,65.7L67.9,65.7L67.9,65.7c0.1,0.2,0,0.2-0.1,0.2h-0.1C67.7,65.9,67.7,65.8,67.9,65.7z
			 M68.7,66.1h0.1c0.2-0.1,0.3-0.1,0.3-0.2h-0.1C68.7,65.9,68.7,66,68.7,66.1z M69.4,48.3h0.1v0.1c0,0.1,0,0.1-0.1,0.1V48.3z
			 M69.8,47.9L69.8,47.9L69.8,47.9c0.1,0.1,0,0.2-0.1,0.3L69.6,48L69.8,47.9z M74.7,62.2H75c-0.6,0.3-1.4,0.7-2.6,1.3l-0.1-0.1
			L74.7,62.2z M73.1,45.7l0.2,0.1l0.1-0.3h-0.1C73.3,45.5,73.2,45.5,73.1,45.7z M73.5,45.4h0.2v-0.1h-0.1
			C73.5,45.3,73.5,45.3,73.5,45.4z M75.5,63.3L75.5,63.3c0.2,0,0.2,0,0.2-0.1h-0.1C75.6,63.2,75.5,63.2,75.5,63.3z M75.8,43.7h0.2
			c0.1,0,0.1-0.1,0.1-0.2v-0.1C75.9,43.6,75.8,43.6,75.8,43.7z M77,50.5L77,50.5l0.2,0.1v-0.1C77.1,50.5,77.1,50.5,77,50.5z
			 M79.8,59.8L79.8,59.8c0,0.2-0.1,0.2-0.3,0.3l-0.1-0.1C79.5,59.8,79.6,59.8,79.8,59.8z M80.6,49.9L80.5,50h0.1
			c0.1-0.1,0.2-0.1,0.2-0.1v-0.1H80.6z M82.9,58.3h0.1c0.1,0,0.2,0,0.2-0.1h-0.2C83,58.2,82.9,58.3,82.9,58.3z M83.4,58l0.1,0.1h0.1
			c0.1,0,0.1,0,0.1-0.1v-0.1h-0.2C83.5,57.9,83.4,57.9,83.4,58z M84.4,57.5l0.2,0.1c0.1,0,0.1-0.1,0.2-0.2h-0.2
			C84.4,57.4,84.4,57.4,84.4,57.5z M84.4,38.2h0.2v0.1h-0.2V38.2z M86.8,56.2L86.8,56.2c0.2,0,0.2,0,0.2-0.1H87
			C86.9,56,86.8,56.1,86.8,56.2z"/>
	</g>
	<g>
		<g>
			<path fill="#25333C" d="M118.4,59.8h-1.5v1.5h-13.3V46.4h13.3v1.5h1.5V59.8z M112.5,58.3v-8.9h-3v8.9H112.5z"/>
			<path fill="#25333C" d="M127.3,61.2h-5.9V46.4h5.9V61.2z"/>
			<path fill="#25333C" d="M145,61.2h-13.3v-1.5h-1.5V47.9h1.5v-1.5H145v3h-8.9v8.9h3v-3h-1.5v-3h7.4V61.2z"/>
			<path fill="#25333C" d="M153.9,61.2H148V46.4h5.9V61.2z"/>
			<path fill="#25333C" d="M171.7,49.4h-4.4v11.8h-5.9V49.4h-4.4v-3h14.8V49.4z"/>
			<path fill="#25333C" d="M189.4,61.2h-5.9v-5.9h-3v5.9h-5.9V47.9h1.5v-1.5h11.8v1.5h1.5V61.2z M183.5,52.4v-3h-3v3H183.5z"/>
			<path fill="#25333C" d="M207.2,61.2h-14.8V46.4h5.9v11.8h8.9V61.2z"/>
		</g>
		<g>
			<rect x="98.4" y="49.4" fill="#25333C" width="2.9" height="2.9"/>
			<rect x="98.4" y="55.3" fill="#25333C" width="2.9" height="2.9"/>
		</g>
	</g>
	<g>
		<path fill="#25333C" d="M105.1,67.1l-1.5-2.2c-0.1-0.1,0-0.2,0.1-0.2h0.7c0.1,0,0.1,0,0.1,0.1l1,1.5l1-1.5c0,0,0.1-0.1,0.1-0.1
			h0.7c0.1,0,0.2,0.1,0.1,0.2l-1.5,2.2v2.1c0,0.1-0.1,0.1-0.1,0.1h-0.6c-0.1,0-0.1-0.1-0.1-0.1V67.1z"/>
		<path fill="#25333C" d="M109.9,64.7c1.3,0,2.4,1.1,2.4,2.4c0,1.3-1,2.3-2.4,2.3c-1.3,0-2.3-1-2.3-2.3
			C107.6,65.8,108.6,64.7,109.9,64.7z M109.9,68.6c0.8,0,1.5-0.7,1.5-1.5s-0.7-1.5-1.5-1.5c-0.8,0-1.5,0.7-1.5,1.5
			S109.1,68.6,109.9,68.6z"/>
		<path fill="#25333C" d="M113.1,64.9c0-0.1,0.1-0.1,0.1-0.1h0.6c0.1,0,0.1,0.1,0.1,0.1v2.7c0,0.6,0.4,1,0.9,1c0.6,0,1-0.4,1-1v-2.7
			c0-0.1,0.1-0.1,0.1-0.1h0.6c0.1,0,0.1,0.1,0.1,0.1v2.7c0,1-0.8,1.8-1.8,1.8c-1,0-1.8-0.8-1.8-1.8V64.9z"/>
		<path fill="#25333C" d="M117.8,64.9c0-0.1,0-0.1,0.1-0.1h1.9c0.8,0,1.4,0.6,1.4,1.4c0,0.6-0.4,1.1-1,1.3l0.9,1.7
			c0,0.1,0,0.2-0.1,0.2h-0.7c-0.1,0-0.1,0-0.1-0.1l-0.9-1.7h-0.7v1.7c0,0.1-0.1,0.1-0.1,0.1H118c-0.1,0-0.1-0.1-0.1-0.1V64.9z
			 M119.8,66.8c0.3,0,0.6-0.3,0.6-0.7c0-0.3-0.3-0.6-0.6-0.6h-1.1v1.3H119.8z"/>
		<path fill="#25333C" d="M123.6,64.9c0-0.1,0.1-0.1,0.1-0.1h1.5c1.3,0,2.3,1,2.3,2.3c0,1.3-1,2.3-2.3,2.3h-1.5
			c-0.1,0-0.1-0.1-0.1-0.1V64.9z M125.2,68.5c0.9,0,1.5-0.6,1.5-1.5c0-0.8-0.6-1.5-1.5-1.5h-0.7v3H125.2z"/>
		<path fill="#25333C" d="M128.4,64.9c0-0.1,0.1-0.1,0.1-0.1h0.6c0.1,0,0.1,0.1,0.1,0.1v4.3c0,0.1-0.1,0.1-0.1,0.1h-0.6
			c-0.1,0-0.1-0.1-0.1-0.1V64.9z"/>
		<path fill="#25333C" d="M132.5,64.7c0.6,0,1.2,0.2,1.6,0.6c0.1,0.1,0.1,0.1,0,0.2l-0.4,0.4c-0.1,0.1-0.1,0.1-0.2,0
			c-0.3-0.2-0.6-0.4-1-0.4c-0.8,0-1.5,0.7-1.5,1.5c0,0.8,0.6,1.5,1.5,1.5c0.4,0,0.6-0.1,0.8-0.2v-0.6h-0.5c-0.1,0-0.1-0.1-0.1-0.1
			v-0.5c0-0.1,0.1-0.1,0.1-0.1h1.3c0.1,0,0.1,0.1,0.1,0.1v1.7c0,0.1,0,0.1-0.1,0.1c0,0-0.7,0.4-1.6,0.4c-1.3,0-2.3-1-2.3-2.3
			C130.2,65.8,131.2,64.7,132.5,64.7z"/>
		<path fill="#25333C" d="M135.1,64.9c0-0.1,0.1-0.1,0.1-0.1h0.6c0.1,0,0.1,0.1,0.1,0.1v4.3c0,0.1-0.1,0.1-0.1,0.1h-0.6
			c-0.1,0-0.1-0.1-0.1-0.1V64.9z"/>
		<path fill="#25333C" d="M137.8,65.5h-1c-0.1,0-0.1-0.1-0.1-0.1v-0.5c0-0.1,0.1-0.1,0.1-0.1h2.9c0.1,0,0.1,0.1,0.1,0.1v0.5
			c0,0.1-0.1,0.1-0.1,0.1h-1v3.7c0,0.1-0.1,0.1-0.1,0.1h-0.6c-0.1,0-0.1-0.1-0.1-0.1V65.5z"/>
		<path fill="#25333C" d="M139.6,69.2l2-4.4c0,0,0.1-0.1,0.1-0.1h0.1c0.1,0,0.1,0,0.1,0.1l2,4.4c0,0.1,0,0.2-0.1,0.2h-0.6
			c-0.1,0-0.1,0-0.2-0.1l-0.3-0.7h-2l-0.3,0.7c0,0.1-0.1,0.1-0.2,0.1h-0.6C139.6,69.3,139.6,69.3,139.6,69.2z M142.4,67.8l-0.7-1.4
			h0l-0.6,1.4H142.4z"/>
		<path fill="#25333C" d="M144.5,64.9c0-0.1,0.1-0.1,0.1-0.1h0.6c0.1,0,0.1,0.1,0.1,0.1v3.7h1.7c0.1,0,0.1,0.1,0.1,0.1v0.5
			c0,0.1-0.1,0.1-0.1,0.1h-2.4c-0.1,0-0.1-0.1-0.1-0.1V64.9z"/>
		<path fill="#25333C" d="M149.8,64.8c0-0.1,0-0.1,0.1-0.1h0.1c0.1,0,0.1,0,0.1,0.1l1.4,3.1c0,0,0,0,0,0l1.4-3.1
			c0,0,0.1-0.1,0.1-0.1h0.1c0.1,0,0.1,0,0.1,0.1l0.8,4.4c0,0.1,0,0.1-0.1,0.1h-0.6c-0.1,0-0.1,0-0.1-0.1l-0.4-2.5c0,0,0,0,0,0
			l-1.1,2.6c0,0-0.1,0.1-0.1,0.1h-0.1c-0.1,0-0.1,0-0.1-0.1l-1.2-2.6c0,0,0,0,0,0l-0.4,2.5c0,0-0.1,0.1-0.1,0.1h-0.6
			c-0.1,0-0.1-0.1-0.1-0.1L149.8,64.8z"/>
		<path fill="#25333C" d="M154.4,69.2l2-4.4c0,0,0.1-0.1,0.1-0.1h0.1c0.1,0,0.1,0,0.1,0.1l2,4.4c0,0.1,0,0.2-0.1,0.2h-0.6
			c-0.1,0-0.1,0-0.2-0.1l-0.3-0.7h-2l-0.3,0.7c0,0.1-0.1,0.1-0.2,0.1h-0.6C154.4,69.3,154.4,69.3,154.4,69.2z M157.2,67.8l-0.7-1.4
			h0l-0.6,1.4H157.2z"/>
		<path fill="#25333C" d="M159.3,64.9c0-0.1,0.1-0.1,0.1-0.1h1.9c0.8,0,1.4,0.6,1.4,1.4c0,0.6-0.4,1.1-1,1.3l0.9,1.7
			c0,0.1,0,0.2-0.1,0.2h-0.7c-0.1,0-0.1,0-0.1-0.1l-0.9-1.7h-0.7v1.7c0,0.1-0.1,0.1-0.1,0.1h-0.6c-0.1,0-0.1-0.1-0.1-0.1V64.9z
			 M161.2,66.8c0.3,0,0.7-0.3,0.7-0.7c0-0.3-0.3-0.6-0.7-0.6h-1.1v1.3H161.2z"/>
		<path fill="#25333C" d="M163.7,64.9c0-0.1,0.1-0.2,0.2-0.2h0.6c0.1,0,0.2,0.1,0.2,0.2v1.8l1.6-1.9c0,0,0.1-0.1,0.1-0.1h0.7
			c0.1,0,0.2,0.1,0.1,0.2l-1.7,1.9l1.8,2.2c0.1,0.1,0,0.2-0.1,0.2h-0.7c-0.1,0-0.1,0-0.1,0l-1.7-2.1v2c0,0.1-0.1,0.2-0.2,0.2h-0.6
			c-0.1,0-0.2-0.1-0.2-0.2V64.9z"/>
		<path fill="#25333C" d="M167.9,64.9c0-0.1,0.1-0.1,0.1-0.1h2.7c0.1,0,0.1,0.1,0.1,0.1v0.5c0,0.1-0.1,0.1-0.1,0.1h-1.9v1.1h1.6
			c0.1,0,0.1,0.1,0.1,0.1v0.5c0,0.1-0.1,0.1-0.1,0.1h-1.6v1.1h1.9c0.1,0,0.1,0.1,0.1,0.1v0.5c0,0.1-0.1,0.1-0.1,0.1h-2.7
			c-0.1,0-0.1-0.1-0.1-0.1V64.9z"/>
		<path fill="#25333C" d="M172.4,65.5h-1c-0.1,0-0.1-0.1-0.1-0.1v-0.5c0-0.1,0.1-0.1,0.1-0.1h2.9c0.1,0,0.1,0.1,0.1,0.1v0.5
			c0,0.1-0.1,0.1-0.1,0.1h-1v3.7c0,0.1-0.1,0.1-0.1,0.1h-0.6c-0.1,0-0.1-0.1-0.1-0.1V65.5z"/>
		<path fill="#25333C" d="M175.1,64.9c0-0.1,0.1-0.1,0.1-0.1h0.6c0.1,0,0.1,0.1,0.1,0.1v4.3c0,0.1-0.1,0.1-0.1,0.1h-0.6
			c-0.1,0-0.1-0.1-0.1-0.1V64.9z"/>
		<path fill="#25333C" d="M177.1,64.8c0-0.1,0.1-0.1,0.1-0.1h0.2l2.7,2.9h0v-2.7c0-0.1,0.1-0.1,0.1-0.1h0.6c0.1,0,0.1,0.1,0.1,0.1
			v4.4c0,0.1-0.1,0.1-0.1,0.1h-0.2l-2.7-3h0v2.8c0,0.1-0.1,0.1-0.1,0.1h-0.6c-0.1,0-0.1-0.1-0.1-0.1V64.8z"/>
		<path fill="#25333C" d="M184.2,64.7c0.6,0,1.2,0.2,1.6,0.6c0.1,0.1,0.1,0.1,0,0.2l-0.4,0.4c-0.1,0.1-0.1,0.1-0.2,0
			c-0.3-0.2-0.6-0.4-1-0.4c-0.8,0-1.5,0.7-1.5,1.5c0,0.8,0.6,1.5,1.5,1.5c0.4,0,0.6-0.1,0.8-0.2v-0.6h-0.5c-0.1,0-0.1-0.1-0.1-0.1
			v-0.5c0-0.1,0.1-0.1,0.1-0.1h1.3c0.1,0,0.1,0.1,0.1,0.1v1.7c0,0.1,0,0.1-0.1,0.1c0,0-0.7,0.4-1.6,0.4c-1.3,0-2.3-1-2.3-2.3
			C181.8,65.8,182.9,64.7,184.2,64.7z"/>
		<path fill="#25333C" d="M190.3,64.7c0.6,0,1.2,0.2,1.6,0.6c0.1,0.1,0.1,0.1,0,0.2l-0.4,0.4c-0.1,0.1-0.1,0.1-0.2,0
			c-0.3-0.2-0.6-0.4-1-0.4c-0.8,0-1.5,0.7-1.5,1.5c0,0.8,0.6,1.5,1.5,1.5c0.4,0,0.6-0.1,0.8-0.2v-0.6h-0.5c-0.1,0-0.1-0.1-0.1-0.1
			v-0.5c0-0.1,0.1-0.1,0.1-0.1h1.3c0.1,0,0.1,0.1,0.1,0.1v1.7c0,0.1,0,0.1-0.1,0.1c0,0-0.7,0.4-1.6,0.4c-1.3,0-2.3-1-2.3-2.3
			C187.9,65.8,189,64.7,190.3,64.7z"/>
		<path fill="#25333C" d="M192.8,64.9c0-0.1,0.1-0.1,0.1-0.1h0.6c0.1,0,0.1,0.1,0.1,0.1v2.7c0,0.6,0.4,1,0.9,1c0.6,0,1-0.4,1-1v-2.7
			c0-0.1,0.1-0.1,0.1-0.1h0.6c0.1,0,0.1,0.1,0.1,0.1v2.7c0,1-0.8,1.8-1.8,1.8c-1,0-1.8-0.8-1.8-1.8V64.9z"/>
		<path fill="#25333C" d="M197.6,64.9c0-0.1,0.1-0.1,0.1-0.1h0.6c0.1,0,0.1,0.1,0.1,0.1v4.3c0,0.1-0.1,0.1-0.1,0.1h-0.6
			c-0.1,0-0.1-0.1-0.1-0.1V64.9z"/>
		<path fill="#25333C" d="M199.6,64.9c0-0.1,0.1-0.1,0.1-0.1h1.6c1.3,0,2.3,1,2.3,2.3c0,1.3-1,2.3-2.3,2.3h-1.6
			c-0.1,0-0.1-0.1-0.1-0.1V64.9z M201.2,68.5c0.9,0,1.5-0.6,1.5-1.5c0-0.8-0.6-1.5-1.5-1.5h-0.7v3H201.2z"/>
		<path fill="#25333C" d="M204.5,64.9c0-0.1,0.1-0.1,0.1-0.1h2.7c0.1,0,0.1,0.1,0.1,0.1v0.5c0,0.1-0.1,0.1-0.1,0.1h-1.9v1.1h1.6
			c0.1,0,0.1,0.1,0.1,0.1v0.5c0,0.1-0.1,0.1-0.1,0.1h-1.6v1.1h1.9c0.1,0,0.1,0.1,0.1,0.1v0.5c0,0.1-0.1,0.1-0.1,0.1h-2.7
			c-0.1,0-0.1-0.1-0.1-0.1V64.9z"/>
	</g>
</g>
</svg>
