<?xml version="1.0" encoding="utf-8"?>
<!-- Generator: Adobe Illustrator 17.1.0, SVG Export Plug-In . SVG Version: 6.00 Build 0)  -->
<!DOCTYPE svg PUBLIC "-//W3C//DTD SVG 1.1//EN" "http://www.w3.org/Graphics/SVG/1.1/DTD/svg11.dtd">
<svg version="1.1" id="Vrstva_1" xmlns="http://www.w3.org/2000/svg" xmlns:xlink="http://www.w3.org/1999/xlink" x="0px" y="0px"
	 viewBox="0 0 204.3 79.5" enable-background="new 0 0 204.3 79.5" xml:space="preserve">
<g>
	<path fill="#9F614B" d="M94.2,55.6l4.1,11.2l-9.8-6.1c1.4-0.3,2.8-1,3.9-2.1C93.2,57.7,93.8,56.7,94.2,55.6 M89.8,43.8L86.5,35
		l-5,10.9l-11.9,3l8.2,5.1L67.1,77.8l0.7-0.8c3.3-6.9,7.7-13.3,13.1-18.9c-2.3-3-2.1-7.3,0.8-10.2c3-3,7.9-3.1,10.8-0.2
		c0.1,0.1,0.1,0.1,0.2,0.2c4.7-3.3,9.9-6.1,15.5-8.3c0.8-0.3,1.6-0.6,2.4-0.9l0.7-0.5L89.8,43.8z"/>
	<path d="M5.2,62.1c-1.7,0-3.3-0.2-4.6-0.5L0.7,58c1.3,0.5,3.1,0.9,4.8,0.9c2.5,0,4.6-1.1,4.6-3.6C10.1,50.5,0,52.5,0,45.1
		c0-4,3.1-6.7,8.5-6.7c1.4,0,2.8,0.2,4.2,0.4l-0.2,3.3c-1.3-0.4-2.8-0.6-4.2-0.6c-2.9,0-4.3,1.3-4.3,3.2c0,4.6,10.1,2.9,10.1,10.1
		C14,59,10.7,62.1,5.2,62.1 M22.5,47.1v14.6h-3.7V47.1h-4.9V44h13.5v3.1H22.5z M39.9,61.8l-1.3-3.4h-7.4L30,61.8h-3.7L33,44h4.3
		L44,61.8H39.9z M35.9,50.7c-0.3-0.9-0.7-2-0.9-2.8h0c-0.2,0.9-0.5,1.8-0.9,2.8l-1.9,5h5.6L35.9,50.7z M55.7,61.8l-5.1-7.3h-0.2v7.3
		h-3.7V44c1.3-0.1,3.6-0.1,5.8-0.1c4.2,0,6.7,1.6,6.7,4.9c0,2.9-2,4.6-4.9,5.1c0.4,0.5,0.9,1.2,1.4,1.9l4.4,5.9H55.7z M52,46.7
		c-0.6,0-1.1,0-1.6,0.1v5.1c0.5,0,1.1,0.1,1.7,0.1c1.9,0,3.2-1.1,3.2-2.8C55.3,47.6,54.1,46.7,52,46.7 M66.4,62.1
		c-1.2,0-2.7-0.2-3.7-0.4l0.1-3.3c1,0.4,2.4,0.7,3.9,0.7c1.7,0,3.3-0.8,3.3-2.5c0-3.1-7.8-1.5-7.8-7.3c0-3.3,2.6-5.6,7.3-5.6
		c1,0,2.4,0.1,3.4,0.3l-0.1,3.1c-1-0.3-2.4-0.5-3.4-0.5c-2.3,0-3.2,0.9-3.2,2.2c0,3,7.9,1.7,7.9,7.3C74.1,59.7,70.9,62.1,66.4,62.1
		 M121,61.8l-5.1-7.3h-0.2v7.3h-3.7V44c1.3-0.1,3.6-0.1,5.8-0.1c4.2,0,6.7,1.6,6.7,4.9c0,2.9-2,4.6-4.8,5.1c0.4,0.5,0.9,1.2,1.4,1.9
		l4.4,5.9H121z M117.4,46.7c-0.6,0-1.1,0-1.6,0.1v5.1c0.5,0,1.1,0.1,1.7,0.1c1.9,0,3.2-1.1,3.2-2.8
		C120.7,47.6,119.4,46.7,117.4,46.7 M128.5,44h3.7v17.8h-3.7V44z M136.8,61.8V44h10.5v2.9h-6.8v4.3h5.5V54h-5.5v4.8h6.8v2.9H136.8z
		 M162.8,61.8l-6.1-9.6c-0.7-1.1-1.3-2.3-1.8-3.4h0c0.1,1,0.1,2.1,0.1,3.7l0,9.3h-3.6V44h4.9l6,9.5c0.7,1.1,1.4,2.3,1.9,3.5h0
		c-0.1-1.1-0.1-2.8-0.1-5.1l0-7.8h3.6v17.8H162.8z M178,61.9c-2.3,0-4-0.1-5.5-0.1V44c1.6,0,4.4-0.1,6.5-0.1c5.8,0,9.6,2.5,9.6,8.7
		C188.5,59,184,61.9,178,61.9 M178.5,46.9c-0.7,0-1.6,0-2.4,0.1v11.7c0.5,0,1.4,0.1,2.2,0.1c3.7,0,6.2-1.9,6.2-6
		C184.6,48.9,182.5,46.9,178.5,46.9 M195.5,62.1c-1.7,0-3.3-0.2-4.6-0.5l0.2-3.5c1.3,0.5,3.1,0.9,4.8,0.9c2.5,0,4.6-1.1,4.6-3.6
		c0-4.9-10.1-2.8-10.1-10.2c0-4,3.1-6.7,8.5-6.7c1.4,0,2.8,0.2,4.2,0.4l-0.2,3.3c-1.3-0.4-2.8-0.6-4.2-0.6c-2.9,0-4.3,1.3-4.3,3.2
		c0,4.6,10.1,2.9,10.1,10.1C204.3,59,201,62.1,195.5,62.1 M98.4,46v15.7h3.7v-7.4h5.3v-2.8h-5.3v-4.6h6.6V44h-6.9
		C100.7,44.6,99.5,45.3,98.4,46 M90.7,58.2c-1.3,0.9-2.9,1.5-4.8,1.5c-2.6,0-3.9-1.5-3.9-3.5c0-1.6,1-2.6,2.1-3.5
		c-1.1-1.1-1.5-2-1.5-2.8c0-1.7,1.3-3,3.5-3c2,0,3.2,1.1,3.2,2.6c0,1.4-0.9,2.3-1.9,3.2c0.6,0.7,2.6,2.2,3.4,2.9
		c0.5-0.7,0.8-1.5,0.8-2.4c-0.4-0.1-1-0.2-1.3-0.2v-1.3c1.1-0.2,2.3-0.2,3.5-0.2c0.1,1.8-0.4,3.7-1.4,5.1
		C91.9,57.1,91.4,57.6,90.7,58.2 M85.5,54c-0.7,0.5-1.3,1.2-1.3,2.1c0,1,0.8,1.8,2.1,1.8c1,0,1.9-0.3,2.7-0.9
		C87.6,56,86.4,54.9,85.5,54 M86,48.7c-0.7,0-1.2,0.4-1.2,1.2c0,0.4,0.4,1,1.1,1.8c0.7-0.5,1.2-1.1,1.2-1.9
		C87.1,49.2,86.8,48.7,86,48.7 M79.4,74c-0.2,0-0.4,0-0.6,0v2.9h-0.8v-7.2c0.5,0,1.1,0,1.7,0c1.6,0,2.5,0.8,2.5,2.1
		C82.1,73.1,81,74,79.4,74 M79.5,70.3c-0.3,0-0.5,0-0.8,0v3c0.2,0,0.4,0,0.7,0c1.2,0,1.9-0.6,1.9-1.6C81.3,70.8,80.7,70.3,79.5,70.3
		 M87.2,76.9c0-0.3,0-0.8,0.1-1.2l0,0c-0.3,0.8-1,1.3-1.9,1.3c-1.2,0-1.6-0.8-1.6-1.7v-3.1c-0.3,0-0.6-0.1-0.9-0.1v-0.5
		c0.5-0.1,1.2-0.1,1.7-0.1V75c0,0.8,0.2,1.3,1,1.3c1,0,1.6-0.9,1.6-2.2v-2.6H88v4.7c0.3,0,0.6,0.1,0.9,0.1v0.5
		C88.4,76.9,87.7,76.9,87.2,76.9 M90.9,77c-0.4,0-0.8,0-1.1-0.1l0-0.7c0.3,0.1,0.8,0.2,1.2,0.2c0.8,0,1.3-0.3,1.3-0.9
		c0-1.3-2.6-0.5-2.6-2.4c0-0.9,0.7-1.6,2.1-1.6c0.3,0,0.7,0.1,1,0.1l0,0.7c-0.4-0.1-0.7-0.2-1.1-0.2c-0.8,0-1.2,0.3-1.2,0.8
		c0,1.3,2.6,0.5,2.6,2.4C93.1,76.2,92.3,77,90.9,77 M93.9,69.6v-0.5C94.3,69,95,69,95.6,69v2.6c0,0.4,0,0.8-0.1,1.1l0,0
		c0.3-0.8,1-1.3,1.9-1.3c1.2,0,1.6,0.8,1.6,1.7v3.7h-0.8v-3.5c0-0.8-0.2-1.3-1-1.3c-1,0-1.6,0.9-1.6,2.2v2.6h-0.8v-7.2
		C94.5,69.6,94.2,69.6,93.9,69.6 M101.8,76.4c0,0.3-0.3,0.6-0.6,0.6c-0.3,0-0.6-0.3-0.6-0.6c0-0.3,0.3-0.6,0.6-0.6
		C101.5,75.8,101.8,76.1,101.8,76.4 M110.4,70.6c-0.6-0.2-1.3-0.4-1.9-0.4c-1.5,0-2.9,1-2.9,3c0,1.9,1.1,3,2.8,3
		c0.5,0,1-0.1,1.4-0.2v-2.8h0.8v3.3c-0.7,0.3-1.6,0.4-2.4,0.4c-2.1,0-3.6-1.3-3.6-3.6c0-2.2,1.4-3.9,3.9-3.9c0.7,0,1.3,0.1,2,0.3
		L110.4,70.6z M116.2,76.9c0-0.3,0-0.8,0.1-1.2l0,0c-0.3,0.8-1,1.3-1.9,1.3c-1.2,0-1.6-0.8-1.6-1.7v-3.1c-0.3,0-0.6-0.1-0.9-0.1
		v-0.5c0.5-0.1,1.2-0.1,1.7-0.1V75c0,0.8,0.2,1.3,1,1.3c1,0,1.6-0.9,1.6-2.2v-2.6h0.8v4.7c0.3,0,0.6,0.1,0.9,0.1v0.5
		C117.5,76.9,116.8,76.9,116.2,76.9 M120.2,76.9h-0.8v-4.7c-0.3,0-0.6-0.1-0.9-0.1v-0.5c0.5-0.1,1.2-0.1,1.7-0.1V76.9z M119.8,70.6
		c-0.3,0-0.5-0.2-0.5-0.5c0-0.3,0.2-0.5,0.5-0.5c0.3,0,0.6,0.2,0.6,0.5C120.4,70.3,120.1,70.6,119.8,70.6 M125.4,76.9
		c0-0.3,0-0.8,0.1-1.2l0,0c-0.3,0.8-1,1.3-1.8,1.3c-1.3,0-2-1-2-2.5c0-1.9,1.1-3,2.7-3c0.3,0,0.6,0,1,0.1v-1.8
		c-0.3,0-0.6-0.1-0.9-0.1v-0.5c0.5-0.1,1.2-0.1,1.7-0.1v7.2c0.3,0,0.6,0.1,0.9,0.1v0.5C126.6,76.9,125.9,76.9,125.4,76.9
		 M125.4,72.2c-0.4-0.1-0.7-0.1-1.1-0.1c-1.1,0-1.8,0.7-1.8,2.3c0,1.2,0.4,1.9,1.3,1.9c1.1,0,1.6-1.2,1.6-2.2V72.2z M132.2,74h-3.6
		c-0.1,1.6,0.6,2.3,1.8,2.3c0.6,0,1.1-0.1,1.5-0.3l0.1,0.7c-0.5,0.2-1.1,0.3-1.8,0.3c-1.6,0-2.5-0.9-2.5-2.7c0-1.6,0.9-2.8,2.3-2.8
		c1.5,0,2.1,1,2.1,2.2C132.2,73.7,132.2,73.9,132.2,74 M130.1,72c-0.8,0-1.3,0.5-1.4,1.4h2.7C131.4,72.6,130.9,72,130.1,72
		 M134.5,76.4c0,0.3-0.3,0.6-0.6,0.6c-0.3,0-0.6-0.3-0.6-0.6c0-0.3,0.3-0.6,0.6-0.6C134.3,75.8,134.5,76.1,134.5,76.4 M139.2,77
		c-0.5,0-1.1-0.1-1.4-0.2l0-0.8c0.4,0.1,1,0.3,1.5,0.3c0.9,0,1.7-0.4,1.7-1.4c0-1.7-3.4-1.1-3.4-3.4c0-1.1,0.9-2,2.5-2
		c0.5,0,0.9,0.1,1.3,0.1l0,0.7c-0.4-0.1-0.9-0.2-1.3-0.2c-1.1,0-1.6,0.5-1.6,1.2c0,1.7,3.4,1.1,3.4,3.3
		C141.8,76.1,140.8,77,139.2,77 M147.1,76.9c0-0.3,0-0.8,0.1-1.2l0,0c-0.3,0.8-1,1.3-1.9,1.3c-1.2,0-1.6-0.8-1.6-1.7v-3.1
		c-0.3,0-0.6-0.1-0.9-0.1v-0.5c0.5-0.1,1.2-0.1,1.7-0.1V75c0,0.8,0.2,1.3,1,1.3c1,0,1.6-0.9,1.6-2.2v-2.6h0.8v4.7
		c0.3,0,0.6,0.1,0.9,0.1v0.5C148.3,76.9,147.6,76.9,147.1,76.9 M149.3,72.1v-0.5c0.5-0.1,1.2-0.1,1.7-0.1c0,0.3,0,0.8-0.1,1.2l0,0
		c0.3-0.8,1-1.3,1.8-1.3c1.2,0,2,0.9,2,2.5c0,1.9-1.1,3-2.7,3c-0.4,0-0.6,0-1-0.1v2.7h-0.8v-7.4C150,72.1,149.6,72.1,149.3,72.1
		 M152.6,72.1c-1.1,0-1.6,1.2-1.6,2.2v1.9c0.3,0.1,0.6,0.1,1.1,0.1c1.1,0,1.8-0.7,1.8-2.3C153.9,72.8,153.5,72.1,152.6,72.1
		 M155.6,72.1v-0.5c0.5-0.1,1.2-0.1,1.7-0.1c0,0.3,0,0.8-0.1,1.2l0,0c0.3-0.8,1-1.3,1.8-1.3c1.2,0,2,0.9,2,2.5c0,1.9-1.1,3-2.7,3
		c-0.4,0-0.6,0-1-0.1v2.7h-0.8v-7.4C156.2,72.1,155.9,72.1,155.6,72.1 M158.9,72.1c-1.1,0-1.6,1.2-1.6,2.2v1.9
		c0.3,0.1,0.6,0.1,1.1,0.1c1.1,0,1.8-0.7,1.8-2.3C160.2,72.8,159.8,72.1,158.9,72.1 M164.3,77c-1.4,0-2.4-0.9-2.4-2.7
		c0-1.5,0.9-2.8,2.5-2.8c1.3,0,2.4,0.7,2.4,2.7C166.9,75.7,165.9,77,164.3,77 M164.4,72.1c-0.8,0-1.6,0.6-1.6,2.1
		c0,1.4,0.6,2.1,1.6,2.1c0.8,0,1.6-0.6,1.6-2.1C166,72.9,165.5,72.1,164.4,72.1 M169.2,72.9L169.2,72.9c0.2-0.8,0.8-1.6,1.9-1.4
		l0,0.8c-1.2-0.2-1.7,0.7-1.7,2.5v2.1h-0.8v-4.7c-0.3,0-0.6-0.1-0.9-0.1v-0.5c0.5-0.1,1.2-0.1,1.7-0.1
		C169.4,71.9,169.3,72.4,169.2,72.9 M174.1,77c-1.1,0-1.4-0.5-1.4-1.6v-3.2h-1.2v-0.6h1.2v-1.8l0.8-0.2v2h1.6v0.6h-1.6V75
		c0,1,0.2,1.2,0.8,1.2c0.3,0,0.5,0,0.8-0.1v0.7C174.9,76.9,174.5,77,174.1,77 M177.6,76.4c0,0.3-0.3,0.6-0.6,0.6
		c-0.3,0-0.6-0.3-0.6-0.6c0-0.3,0.3-0.6,0.6-0.6C177.3,75.8,177.6,76.1,177.6,76.4"/>
	<g>
		<path d="M8.5,21.6l1,2.1c0.3,0.6,0.4,0.7,0.8,0.6l0.6,1.3l-2.5,1.2l-0.6-1.3c0.3-0.3,0.3-0.4,0-1l-1.8-3.7
			c-0.3-0.6-0.4-0.7-0.8-0.6l-0.6-1.3l2.1-1l4,3.1l-1-2c-0.3-0.6-0.4-0.7-0.8-0.6l-0.6-1.3l2.5-1.2l0.6,1.3c-0.3,0.2-0.3,0.4,0,1
			l2.8,5.8l-1.7,0.8L8.5,21.6z"/>
		<path d="M42.6,9c-0.1-0.6-0.2-0.8-0.6-0.8l-0.2-1.4l3.3-0.6c1-0.2,1.5-0.1,2,0.1c0.7,0.3,1.1,1,1.3,2l0.5,3c0.2,1,0.2,1.4,0,1.9
			c-0.2,0.7-0.8,1.2-1.5,1.5c-0.2,0.1-0.8,0.2-1.4,0.3l-2.7,0.5L43,14c0.4-0.2,0.4-0.3,0.3-0.9L42.6,9z M45.4,13.3l0.6-0.1
			c0.5-0.1,0.7-0.2,0.8-0.3c0.2-0.2,0.2-0.4,0.1-1l-0.5-3C46.3,8,46,7.8,45.1,8l-0.7,0.1L45.4,13.3z"/>
		<path d="M66,10.4c0.1,0.5,0.3,0.7,0.6,0.7l0.1,1.4l-3,0.2l-0.1-1.4c0.3,0,0.4-0.2,0.4-0.4c0-0.1,0-0.2-0.1-0.3l-0.1-0.4l-1.7,0.1
			l0,0.4c0,0.1,0,0.2,0,0.3c0,0.3,0.2,0.4,0.5,0.4l0.1,1.4l-2.7,0.2L60,11.6c0.3-0.1,0.4-0.3,0.4-0.9l0.8-6.6l3-0.2L66,10.4z
			 M63,3.4l-0.8,0.1l0.4-1.6l1.4-0.1L63,3.4z M62.6,6.2l-0.3,2.9L63.5,9L62.6,6.2z"/>
		<path d="M83.3,11.6c-1.1,0.5-2,0.7-2.9,0.7c-1.2,0-2.1-0.4-2.6-1c-0.3-0.4-0.3-0.6-0.3-1.5l0-4.2c0-0.8,0.1-1.2,0.6-1.6
			c0.5-0.5,1.3-0.8,2.3-0.8c1,0,2,0.2,2.9,0.6l0,2.5l-1.9,0l0-0.2c0-0.7-0.3-1.1-0.9-1.1c-0.7,0-1,0.4-1,1.2l0,3.2
			c0,0.8,0.3,1.2,1,1.2c0.6,0,0.9-0.3,0.9-1.2l0-0.7l1.9,0L83.3,11.6z"/>
		<path d="M95.5,6.1c0-0.6,0-0.8-0.4-0.9l0.1-1.4l2.9,0.2L98,5.4c-0.4,0.1-0.5,0.2-0.5,0.8l-0.2,4.1c0,0.6,0,0.8,0.4,0.9l-0.1,1.4
			l-2.9-0.2l0.1-1.4c0.4-0.1,0.5-0.2,0.5-0.8L95.5,6.1z"/>
		<path d="M114.8,12.1c0,0.5,0.1,0.7,0.4,0.8l-0.2,1.4l-3-0.3l0.2-1.4c0.3,0,0.5-0.1,0.5-0.3c0-0.1,0-0.2,0-0.3l0-0.4l-1.7-0.2
			l-0.1,0.4c0,0.1,0,0.2-0.1,0.3c0,0.3,0.1,0.4,0.4,0.5l-0.2,1.4l-2.7-0.3l0.2-1.4c0.3-0.1,0.4-0.2,0.6-0.8l2-6.3l3,0.3L114.8,12.1z
			 M112.3,7.4l-0.9,2.8l1.2,0.1L112.3,7.4z"/>
	</g>
	<g>
		<path fill="#5CA038" d="M188.6,35C101.8,5.8,48.9,14.9,23.2,24.2L22,26.6C93.3,4,188.6,35,188.6,35z"/>
		<path fill="#5CA038" d="M4.5,33.5c4.3-2.1,8.8-3.9,13.3-5.5l0.6-1.9C8.9,30,4.5,33.5,4.5,33.5z"/>
	</g>
	<g>
		<polygon fill="#5CA038" points="36.3,23.8 42.5,27.2 39.7,23 		"/>
		<path fill="#5CA038" d="M30.1,7.3l-3.8-6.6L23.8,10l-9.1,4l7.2,3L19.7,25c0,0,0,0,0,0L19,27.6l-2.7,9.8l0.4-0.7
			c0.8-2.7,1.8-5.3,2.9-7.8l2.6-5.1h0c0.8-1.4,1.6-2.7,2.5-4l0.9-1.4l3.8,1.8l1.3,0.6c0.7-0.3,3-1.1,6.2-1.8l-1.9-2.9L32,10.9
			c3.4-3.2,8-6.9,12.2-9.4c0.6-0.4,1.2-0.7,1.8-1L46.6,0L30.1,7.3z M32.6,8.4c-0.2,0.1-0.4,0.2-0.6,0.3c-1.4,0.8-3,2-4.2,3.1l1,1.8
			l2.5,3.8l-3.8-2.2L26.9,15l-1.3-0.6l-0.3,0.5c-1.2,1.8-2.2,3.7-2.8,5.7l-0.1,0.2l2-6.9l-2.4-1.1l3.1-1.3l0.9-3.2l1.2,2.3l5.6-2.4
			L32.6,8.4z"/>
	</g>
</g>
</svg>
