<?xml version="1.0" encoding="utf-8"?>
<!-- Generator: Adobe Illustrator 17.1.0, SVG Export Plug-In . SVG Version: 6.00 Build 0)  -->
<!DOCTYPE svg PUBLIC "-//W3C//DTD SVG 1.1//EN" "http://www.w3.org/Graphics/SVG/1.1/DTD/svg11.dtd">
<svg version="1.1" xmlns="http://www.w3.org/2000/svg" xmlns:xlink="http://www.w3.org/1999/xlink" x="0px" y="0px"
	 viewBox="0 0 105.5 67" enable-background="new 0 0 105.5 67" xml:space="preserve">
<g>
</g>
<g>
	<rect x="0" fill="#EC008C" width="105.5" height="67"/>
	<g>
		<path fill="#FFFFFF" d="M14.9,39.5V32h7.5v7.5H14.9z"/>
		<path fill="#FFFFFF" d="M37.9,39.5V32h7.5v7.5H37.9z"/>
		<path fill="#FFFFFF" d="M60.5,39.5V32H68v7.5H60.5z"/>
		<path fill="#FFFFFF" d="M83.1,39.5V32h7.5v7.5H83.1z"/>
		<path fill="#FFFFFF" d="M45,14.9H15.3L14.9,28l2,0.3c0.4-3.9,1.4-6.7,3-8.6c1.8-2,4.2-3,7.3-3.1v27.5c0,2.4-0.3,4-1,4.7
			c-0.6,0.6-1.6,1-3,1.1C22.7,50,22,50,21,50v2.1h18.4V50c-1,0-1.7,0-2.2-0.1c-1.4-0.1-2.4-0.5-3-1.1c-0.7-0.7-1-2.3-1-4.7V16.7
			c3.1,0.1,5.5,1.1,7.3,3.1c1.7,1.9,2.7,4.7,3,8.6l2-0.3L45,14.9z"/>
	</g>
</g>
<g>
</g>
<g display="none">
</g>
</svg>
