<?xml version="1.0" encoding="utf-8"?>
<!-- Generator: Adobe Illustrator 17.1.0, SVG Export Plug-In . SVG Version: 6.00 Build 0)  -->
<!DOCTYPE svg PUBLIC "-//W3C//DTD SVG 1.1//EN" "http://www.w3.org/Graphics/SVG/1.1/DTD/svg11.dtd">
<svg version="1.1" id="Layer_1" xmlns="http://www.w3.org/2000/svg" xmlns:xlink="http://www.w3.org/1999/xlink" x="0px" y="0px"
	 viewBox="0 0 357.6 50.5" enable-background="new 0 0 357.6 50.5" xml:space="preserve">
<g>
	<g>
		<path fill="#999B9E" d="M225.8,42.3c-2.2,0-4.1,1.8-4.1,4.1c0,2.2,1.8,4.1,4.1,4.1c2.2,0,4.1-1.8,4.1-4.1
			C229.8,44.2,228,42.3,225.8,42.3z"/>
		<path fill="#999B9E" d="M247.1,42.3c-2.2,0-4.1,1.8-4.1,4.1c0,2.2,1.8,4.1,4.1,4.1c2.2,0,4.1-1.8,4.1-4.1
			C251.1,44.2,249.3,42.3,247.1,42.3z"/>
		<path fill="#999B9E" d="M268.3,42.3c-2.2,0-4.1,1.8-4.1,4.1c0,2.2,1.8,4.1,4.1,4.1c2.2,0,4.1-1.8,4.1-4.1
			C272.4,44.2,270.6,42.3,268.3,42.3z"/>
		<path fill="#999B9E" d="M289.6,42.3c-2.2,0-4.1,1.8-4.1,4.1c0,2.2,1.8,4.1,4.1,4.1c2.2,0,4.1-1.8,4.1-4.1
			C293.7,44.2,291.9,42.3,289.6,42.3z"/>
		<path fill="#999B9E" d="M332.2,42.3c-2.2,0-4.1,1.8-4.1,4.1c0,2.2,1.8,4.1,4.1,4.1c2.3,0,4.1-1.8,4.1-4.1
			C336.3,44.2,334.4,42.3,332.2,42.3z"/>
		<path fill="#999B9E" d="M353.5,42.3c-2.2,0-4.1,1.8-4.1,4.1c0,2.2,1.8,4.1,4.1,4.1c2.2,0,4.1-1.8,4.1-4.1
			C357.6,44.2,355.7,42.3,353.5,42.3z"/>
	</g>
	<g>
		<path fill="#006BB6" d="M311,42.4c-2.2,0-4.1,1.8-4.1,4.1c0,2.2,1.8,4.1,4.1,4.1c2.2,0,4.1-1.8,4.1-4.1
			C315,44.2,313.2,42.4,311,42.4z"/>
	</g>
	<path fill="#006BB6" d="M298.7,25.9V8.6h3l7,12.4l0,0V8.6h2.1v17.2H309l-8.2-14.4l0,0v14.4H298.7z"/>
	<path fill="#006BB6" d="M276.4,13.4c-0.4-1.6-1.6-3-3.7-3c-1.6,0-2.9,0.7-2.9,2.4c0,3.4,9.4,2.5,9.4,8.1c0,2.4-1.4,5.2-5.9,5.2
		c-4,0-5.5-2.7-6.3-4.8l2.1-0.7c0.7,1.8,1.8,3.4,4.3,3.4c2.2,0,3.5-1.1,3.5-2.8c0-4.1-9.5-2.8-9.5-8.3c0-2.4,2-4.6,5.3-4.6
		c3.1,0,5,1.8,5.8,4.5L276.4,13.4z"/>
	<path fill="#006BB6" d="M288.5,8.4c4.3,0,6.8,3.3,6.8,8.9c0,5.6-2.4,8.9-6.8,8.9c-4.3,0-6.8-3.2-6.8-8.8
		C281.7,11.7,284.1,8.4,288.5,8.4z M288.5,24.1c2.7,0,4.5-2.1,4.5-6.8c0-4.8-1.7-6.8-4.5-6.8c-2.7,0-4.5,2-4.5,6.8
		C284,22,285.8,24.1,288.5,24.1z"/>
	<path fill="#006BB6" d="M250.8,20c-0.4,3.1-2.2,6-6.5,6c-4.1,0-6.8-3-6.8-8.8c0-5.5,2.5-8.8,6.8-8.8c4,0,6,3,6.4,5.8l-2.4,0
		c-0.6-2.4-1.7-3.8-4.3-3.8c-2.3,0-4.2,2-4.2,6.8c0,4.8,1.9,6.8,4.6,6.8c2.6,0,3.5-1.9,4-4L250.8,20z"/>
	<path fill="#006BB6" d="M256.4,25.9h-2.3V8.6h2.3v8.3h0l6.6-8.3h2.8l-5.4,6.6l6,10.7h-2.6l-4.9-8.7l-2.5,3V25.9z"/>
	<path fill="#006BB6" d="M234.1,8.6v17.2h-2.3V8.6H234.1z"/>
	<path fill="#006BB6" d="M216.8,25.9V8.6h5.6c3.6,0,5.8,1.6,5.8,4.6c0,2.4-1.3,3.8-3.3,4.5l3.6,8.1h-2.5l-3.4-7.6h-3.6v7.6H216.8z
		 M219.1,16.2h3.2c2.6,0,3.7-1,3.7-2.8c0-2-1.3-2.7-3.7-2.7h-3.1V16.2z"/>
	<path fill="#006BB6" d="M162.8,25.9V8.6h3l7,12.4l0,0V8.6h2.1v17.2h-1.9L165,11.5l0,0v14.4H162.8z"/>
	<path fill="#006BB6" d="M179.7,25.9V8.6h3l7,12.4l0,0V8.6h2.1v17.2H190l-8.2-14.4l0,0v14.4H179.7z"/>
	<path fill="#006BB6" d="M214.1,4.4v2.1h-10.7v7h7.7v2.1h-7.7v8.1h11.3v2.1h-13.6V4.4H214.1z"/>
	<path fill="#006BB6" d="M146.9,25.9l5.4-17.2h3.2l5.4,17.2h-2.5l-1.6-5.2H151l-1.6,5.2H146.9z M151.6,18.6h4.6l-2.3-8h0L151.6,18.6
		z"/>
	<path fill="#006BB6" d="M146,18.7c-0.5,3.6-2.5,7.4-7.8,7.4c-5,0-8.5-3.7-8.5-11c0-6.8,3.1-11,8.5-11c5.1,0,7,3.7,7.5,7.2h-2.3
		c-0.8-3-2.1-5.1-5.5-5.1c-3.1,0-5.7,2.9-5.7,9c0,6.1,2.6,8.9,6.2,8.9c3.7,0,4.7-2.8,5.4-5.4L146,18.7z"/>
	<path fill="#006BB6" d="M127.5,20.1c-0.4,3.1-2.2,6-6.5,6c-4.1,0-6.8-3-6.8-8.8c0-5.4,2.5-8.8,6.8-8.8c4,0,6,3,6.4,5.8l-2.4,0
		c-0.6-2.4-1.7-3.8-4.3-3.8c-2.3,0-4.2,2-4.2,6.8c0,4.8,1.9,6.8,4.6,6.8c2.6,0,3.5-1.9,4-4H127.5z"/>
	<path fill="#006BB6" d="M108.4,25.9V7.6l0,0l-6,18.2h-1.6l-6-18.2h0v18.2h-2.3V4.4h3.5l5.6,16.9h0l5.5-16.9h3.6v21.5H108.4z"/>
	<path fill="#006BB6" d="M62.1,25.9V8.6h5.6c3.6,0,5.8,1.6,5.8,4.6c0,2.4-1.3,3.8-3.3,4.5l3.6,8.1h-2.5L68,18.2h-3.6v7.6H62.1z
		 M64.5,16.2h3.2c2.6,0,3.7-1,3.7-2.8c0-2-1.3-2.7-3.7-2.7h-3.1V16.2z"/>
	<path fill="#006BB6" d="M58.7,10.6h-8.4v5.3h6v1.9h-6v6.1h8.9v1.9H48V8.6h10.7V10.6z"/>
	<path fill="#006BB6" d="M33.2,8.6h2.5l4,7.5l4-7.5h2.5l-5.4,10v7.2h-2.3v-7.2L33.2,8.6z"/>
	<path fill="#006BB6" d="M20.2,25.9l5.4-17.2h3.2l5.4,17.2h-2.5l-1.6-5.2h-5.8l-1.6,5.2H20.2z M25,18.6h4.6l-2.3-8h0L25,18.6z"/>
	<path fill="#006BB6" d="M87.3,4.2l-7,22h-1.8l6.9-22H87.3z"/>
	<path fill="#006BB6" d="M16,25.9V7.6l0,0l-6,18.2H8.4l-6-18.2h0v18.2H0V4.4h3.5l5.6,16.9h0l5.5-16.9h3.6v21.5H16z"/>
</g>
</svg>
