<?xml version="1.0" encoding="utf-8"?>
<!-- Generator: Adobe Illustrator 17.1.0, SVG Export Plug-In . SVG Version: 6.00 Build 0)  -->
<!DOCTYPE svg PUBLIC "-//W3C//DTD SVG 1.1//EN" "http://www.w3.org/Graphics/SVG/1.1/DTD/svg11.dtd">
<svg version="1.1" id="Layer_1" xmlns="http://www.w3.org/2000/svg" xmlns:xlink="http://www.w3.org/1999/xlink" x="0px" y="0px"
	 viewBox="0 0 46.4 48.2" enable-background="new 0 0 46.4 48.2" xml:space="preserve">
<g>
	<g>
		<g>
			<rect x="0" y="0" fill="#F58220" width="48.2" height="48.2"/>
			<path fill="#FFFFFF" d="M18.9,43.5c-0.7,0.4-1.4,0.7-2.2,0.7c-1.3,0-2-0.8-2-2c0-1.5,1.4-2.3,4.2-2.6v-0.4c0-0.5-0.4-0.8-1.1-0.8
				c-0.7,0-1.2,0.3-1.6,0.8L15,38.6c0.6-0.9,1.6-1.3,2.9-1.3c1.7,0,2.7,0.8,2.7,2c0,0,0,4.8,0,4.9h-1.6L18.9,43.5z M16.4,42.1
				c0,0.5,0.3,0.9,0.8,0.9c0.6,0,1.1-0.2,1.6-0.7v-1.6C17.2,40.9,16.4,41.3,16.4,42.1"/>
			<path fill="#FFFFFF" d="M22,37.6l1.5-0.2l0.2,0.8c0.8-0.6,1.5-0.9,2.3-0.9c1.4,0,2.1,0.7,2.1,2.2v4.7h-1.8v-4.4
				c0-0.8-0.2-1.2-0.9-1.2c-0.5,0-1.1,0.2-1.6,0.7v4.8H22V37.6"/>
			<path fill="#FFFFFF" d="M39.7,44.2c-2,0-3.2-1.3-3.2-3.5c0-2.2,1.2-3.5,3.1-3.5c1.9,0,3.1,1.2,3.1,3.4c0,0.1,0,0.2,0,0.3h-4.5
				c0,1.3,0.5,1.9,1.6,1.9c0.7,0,1.1-0.3,1.5-0.9l1.3,0.7C42.1,43.7,41.1,44.2,39.7,44.2z M41.1,39.9c0-0.9-0.5-1.4-1.4-1.4
				c-0.8,0-1.3,0.5-1.4,1.4H41.1"/>
			<path fill="#FFFFFF" d="M5.9,44.3c-1.7,0-3.3-1.1-3.3-3.5c0-2.4,1.6-3.5,3.3-3.5c1.7,0,3.3,1.1,3.3,3.5
				C9.2,43.2,7.7,44.3,5.9,44.3z M5.9,38.7c-1.3,0-1.6,1.2-1.6,2c0,0.9,0.2,2,1.6,2c1.3,0,1.6-1.2,1.6-2C7.5,39.9,7.2,38.7,5.9,38.7
				"/>
			<path fill="#FFFFFF" d="M10.5,37.4h1.7v0.8c0.3-0.4,1.1-0.9,1.8-0.9c0.1,0,0.2,0,0.2,0v1.7c0,0-0.1,0-0.1,0
				c-0.8,0-1.6,0.1-1.9,0.7v4.5h-1.8V37.4"/>
			<path fill="#FFFFFF" d="M32.4,42.7c1.3,0,1.5-1.4,1.5-2.3c0-1-0.5-1.9-1.5-1.9c-0.6,0-1.3,0.5-1.3,2C31,41.3,31.1,42.7,32.4,42.7
				z M35.5,37.4v6.4c0,1.1-0.1,3-3.3,3c-1.3,0-2.5-0.5-2.8-1.7l1.7-0.3c0.1,0.3,0.3,0.7,1.3,0.7c0.9,0,1.4-0.4,1.4-1.5v-0.8l0,0
				c-0.3,0.5-0.7,1-1.7,1c-1.6,0-2.8-1.1-2.8-3.4c0-2.2,1.3-3.5,2.7-3.5c1.3,0,1.8,0.6,1.9,0.9l0,0l0.1-0.8H35.5"/>
			<path fill="#FFFFFF" d="M43.5,35.2h-0.7v1.9h-0.4v-1.9h-0.7v-0.3h1.8V35.2z M46.4,37.1H46v-1.9h0l-0.7,1.9H45l-0.7-1.9h0v1.9
				h-0.4v-2.2h0.6l0.7,1.7l0.7-1.7h0.6V37.1"/>
			<rect x="-24.1" y="-24.1" fill="none" width="96.4" height="96.4"/>
		</g>
	</g>
</g>
</svg>
