<?xml version="1.0" encoding="utf-8"?>
<!-- Generator: Adobe Illustrator 17.1.0, SVG Export Plug-In . SVG Version: 6.00 Build 0)  -->
<!DOCTYPE svg PUBLIC "-//W3C//DTD SVG 1.1//EN" "http://www.w3.org/Graphics/SVG/1.1/DTD/svg11.dtd">
<svg version="1.1" id="Vrstva_1" xmlns="http://www.w3.org/2000/svg" xmlns:xlink="http://www.w3.org/1999/xlink" x="0px" y="0px"
	 viewBox="0 0 137.8 135" enable-background="new 0 0 137.8 135" xml:space="preserve">
<g>
	<path fill="#24246C" d="M0,55.5c0,30.4,22.4,55.5,54.9,55.5c32.4,0,54.7-25.2,54.7-55.5c0-32.2-22-55.5-54.7-55.5
		C22,0,0,23.3,0,55.5 M21.1,55.5c0-20.2,12.5-39.7,33.8-39.7c21.1,0,33.6,19.5,33.6,39.7c0,18.9-10.4,39.7-33.6,39.7
		C31.5,95.2,21.1,74.4,21.1,55.5"/>
	<path fill="#24246C" d="M139.3,135v-7.4H120c7.7-7.5,17.8-16.6,17.8-26.5c0-9.1-5.8-13.6-14.8-13.6c-4.8,0-9.7,1.2-14,3.3l0.7,7.8
		c3.1-2,6.9-3.7,10.9-3.7c3.9,0,7.7,2,7.7,6.3c0,8.6-16,21.8-20.4,26v7.8H139.3z"/>
</g>
</svg>
