<?xml version="1.0" encoding="utf-8"?>
<!-- Generator: Adobe Illustrator 17.1.0, SVG Export Plug-In . SVG Version: 6.00 Build 0)  -->
<!DOCTYPE svg PUBLIC "-//W3C//DTD SVG 1.1//EN" "http://www.w3.org/Graphics/SVG/1.1/DTD/svg11.dtd">
<svg version="1.1" id="Layer_1" xmlns="http://www.w3.org/2000/svg" xmlns:xlink="http://www.w3.org/1999/xlink" x="0px" y="0px"
	 viewBox="0 0 372.5 59.3" enable-background="new 0 0 372.5 59.3" xml:space="preserve">
<g>
	<g>
		<g>
			<g>
				<g>
					<path fill="#FFFFFF" d="M370.8,28l-7.4-11.6c0,0,0-0.1-0.1-0.1c-1.3-1.8-3.4-2.9-5.6-2.9h-5.3V10c0-1.1-0.9-2-2-2h-91.7
						c-1.1,0-2,0.9-2,2v34.7c0,1.1,0.9,2,2,2h5c1,3.7,4.4,6.5,8.4,6.5c4,0,7.4-2.7,8.4-6.5h2.3h3.2c1,3.7,4.4,6.5,8.4,6.5
						c4,0,7.4-2.7,8.4-6.5h10h36.7c1,3.7,4.4,6.5,8.4,6.5c4,0,7.4-2.7,8.4-6.5h2.1c2.3,0,4.1-1.8,4.1-4.1V34
						C372.5,30.7,371.1,28.5,370.8,28z M370.5,42.7c0,1.1-0.9,2-2,2h-3.9c0,0.1,0,0.1,0,0.2c-0.2,3.5-3.1,6.3-6.6,6.3
						c-3.6,0-6.4-2.8-6.6-6.3c0-0.1,0-0.1,0-0.2h-38.2h-10.8H301c0,0.1,0,0.1,0,0.2c-0.2,3.5-3.1,6.3-6.6,6.3
						c-3.6,0-6.4-2.8-6.6-6.3c0-0.1,0-0.1,0-0.2h-0.9h-3.7h-4.4c0,0.1,0,0.1,0,0.2c-0.2,3.5-3.1,6.3-6.6,6.3c-3.6,0-6.4-2.8-6.6-6.3
						c0-0.1,0-0.1,0-0.2h-6.8V10h91.7v5.4h7.3c1.6,0,3,0.8,3.9,2l7.4,11.7c0,0,1.4,1.8,1.4,4.8V42.7z"/>
				</g>
				<g>
					<path fill="#FFFFFF" d="M272.1,39.1c-2.4,0-4.4,2-4.4,4.4c0,0.6,0.5,1,1,1c0.6,0,1-0.5,1-1c0-1.3,1.1-2.4,2.4-2.4
						c1.3,0,2.4,1.1,2.4,2.4c0,0.6,0.5,1,1,1s1-0.5,1-1C276.5,41.1,274.6,39.1,272.1,39.1z"/>
				</g>
				<g>
					<path fill="#FFFFFF" d="M357.9,39.1c-2.4,0-4.4,2-4.4,4.4c0,0.6,0.5,1,1,1c0.6,0,1-0.5,1-1c0-1.3,1.1-2.4,2.4-2.4
						c1.3,0,2.4,1.1,2.4,2.4c0,0.6,0.5,1,1,1c0.6,0,1-0.5,1-1C362.3,41.1,360.4,39.1,357.9,39.1z"/>
				</g>
				<g>
					<path fill="#FFFFFF" d="M363.3,28.3h-9.8v-7.5c0-0.6-0.5-1-1-1c-0.6,0-1,0.5-1,1v8.5c0,0.6,0.5,1,1,1h10.8c0.6,0,1-0.5,1-1
						C364.3,28.7,363.9,28.3,363.3,28.3z"/>
				</g>
				<g>
					<path fill="#FFFFFF" d="M294.4,39.1c-2.4,0-4.4,2-4.4,4.4c0,0.6,0.5,1,1,1c0.6,0,1-0.5,1-1c0-1.3,1.1-2.4,2.4-2.4
						c1.3,0,2.4,1.1,2.4,2.4c0,0.6,0.5,1,1,1c0.6,0,1-0.5,1-1C298.8,41.1,296.8,39.1,294.4,39.1z"/>
				</g>
			</g>
			<g>
				<path fill="#FFFFFF" d="M32.7,56.2c0,0-0.1,0-0.1,0c-0.1,0-0.2,0-0.3-0.1c-0.2-0.1-0.5-0.2-0.6-0.4L5,29.1
					c-0.1-0.1-0.3-0.3-0.5-0.5l-0.2-0.2c-0.1-0.1-0.1-0.1-0.2-0.2C1.5,25.2,0,21.4,0,17.3C0,8.3,7.3,1,16.3,1
					c4.2,0,8.3,1.6,11.3,4.6c0.1,0,0.1,0.1,0.2,0.1l5,5l5-5c0.1-0.1,0.1-0.1,0.2-0.1C40.9,2.6,44.9,1,49.2,1c9,0,16.3,7.3,16.3,16.3
					c0,4-1.5,7.9-4.2,10.9c-0.1,0.1-0.1,0.2-0.2,0.2l-0.2,0.2c-0.1,0.1-0.3,0.3-0.5,0.5L33.8,55.8C33.5,56,33.1,56.2,32.7,56.2z
					 M6.6,26.4L6.6,26.4c0.2,0.2,0.4,0.4,0.5,0.5l25.6,25.6L58.4,27c0.2-0.2,0.3-0.3,0.4-0.4l0.1-0.1c0,0,0.1-0.1,0.1-0.1
					c2.3-2.5,3.5-5.7,3.5-9C62.5,10,56.5,4,49.2,4c-3.5,0-6.8,1.4-9.4,3.8c0,0-0.1,0.1-0.1,0.1l-5.9,5.9c-0.6,0.6-1.5,0.6-2.1,0
					L25.8,8c-0.1,0-0.1-0.1-0.1-0.1C23.2,5.4,19.8,4,16.3,4C9,4,3,10,3,17.3c0,3.3,1.2,6.5,3.5,9C6.5,26.4,6.6,26.4,6.6,26.4z"/>
			</g>
			<g>
				<path fill="#FFFFFF" d="M97.6,27.6h3.5v1.5h-3.5v4H96v-4h-3.5v-1.5H96v-3.7h1.6V27.6z"/>
			</g>
			<g>
				<path fill="#FFFFFF" d="M226,27.3h-7.2v-1.4h7.2V27.3z M226,30.9h-7.2v-1.4h7.2V30.9z"/>
			</g>
			<g>
				<circle fill="#FFFFFF" cx="160.2" cy="29.6" r="29.6"/>
			</g>
			<g>
				<path fill="#404041" d="M147.1,28.1h2.2c1.8,0,2.7-0.9,2.7-2.6c0-0.7-0.2-1.2-0.6-1.7c-0.4-0.4-1-0.6-1.8-0.6
					c-0.6,0-1.2,0.2-1.6,0.5c-0.5,0.4-0.7,0.8-0.7,1.4h-4.8c0-1.1,0.3-2,0.9-2.9c0.6-0.8,1.4-1.5,2.5-2s2.2-0.7,3.5-0.7
					c2.3,0,4.1,0.5,5.4,1.6c1.3,1,2,2.5,2,4.3c0,0.9-0.3,1.7-0.8,2.5c-0.5,0.8-1.3,1.4-2.4,1.9c1.1,0.4,1.9,1,2.6,1.8s0.9,1.8,0.9,3
					c0,1.8-0.7,3.3-2.1,4.4c-1.4,1.1-3.3,1.7-5.6,1.7c-1.3,0-2.6-0.3-3.7-0.8c-1.2-0.5-2-1.2-2.6-2.1c-0.6-0.9-0.9-1.9-0.9-3.1h4.8
					c0,0.6,0.3,1.2,0.8,1.6s1.1,0.7,1.9,0.7c0.8,0,1.5-0.2,2-0.7c0.5-0.5,0.7-1.1,0.7-1.8c0-1-0.3-1.8-0.8-2.2
					c-0.5-0.4-1.2-0.6-2.1-0.6h-2.3V28.1z"/>
				<path fill="#404041" d="M172.6,32.5h-5.9v0.2c0,2.1,0.5,3.7,1.5,4.8c1,1.1,2.5,1.7,4.3,1.7c1.1,0,2.1-0.2,3.1-0.5l0.1,1.5
					c-1.1,0.3-2.2,0.4-3.2,0.4c-2.3,0-4.2-0.7-5.5-2.1s-2-3.3-2.1-5.8v-0.4h-2.7v-1.3h2.7v-2.3h-2.7v-1.3h2.7c0-2.5,0.7-4.5,2-5.9
					c1.3-1.4,3.2-2.1,5.5-2.1c0.9,0,2,0.1,3.3,0.4l-0.1,1.5c-1.1-0.3-2.1-0.5-3.1-0.5c-1.9,0-3.3,0.6-4.3,1.7
					c-1,1.1-1.5,2.8-1.5,4.9h5.9v1.3h-5.9v2.3h5.9V32.5z"/>
			</g>
		</g>
	</g>
</g>
</svg>
