<?xml version="1.0" encoding="utf-8"?>
<!-- Generator: Adobe Illustrator 17.1.0, SVG Export Plug-In . SVG Version: 6.00 Build 0)  -->
<!DOCTYPE svg PUBLIC "-//W3C//DTD SVG 1.1//EN" "http://www.w3.org/Graphics/SVG/1.1/DTD/svg11.dtd">
<svg version="1.1" id="Layer_1" xmlns="http://www.w3.org/2000/svg" xmlns:xlink="http://www.w3.org/1999/xlink" x="0px" y="0px"
	 viewBox="0 0 397.4 158.9" enable-background="new 0 0 397.4 158.9" xml:space="preserve">
<g>
	<rect x="0" y="81.8" fill="none" width="93" height="77.1"/>
	<text transform="matrix(1 0 0 1 3.4282 89.4844)"><tspan x="0" y="0" fill="#FFFFFF" font-family="'Roboto-Medium'" font-size="10.2252" letter-spacing="1">ukážte, že máte </tspan><tspan x="28.3" y="12.3" fill="#FFFFFF" font-family="'Roboto-Medium'" font-size="10.2252" letter-spacing="1">srdce</tspan></text>
	<rect x="125.8" y="81.8" fill="none" width="97.9" height="77.1"/>
	
		<text transform="matrix(1 0 0 1 142.2115 89.4844)" fill="#FFFFFF" font-family="'Roboto-Medium'" font-size="10.2252" letter-spacing="1">pošlite SMS</text>
	<rect x="256.5" y="81.8" fill="none" width="140.9" height="34.6"/>
	<text transform="matrix(1 0 0 1 260.9112 89.4873)"><tspan x="0" y="0" fill="#FFFFFF" font-family="'Roboto-Medium'" font-size="10.2252" letter-spacing="1">zabezpečte plný kamión </tspan><tspan x="6.4" y="12.3" fill="#FFFFFF" font-family="'Roboto-Medium'" font-size="10.2252" letter-spacing="1">jedla pre podvyživené </tspan><tspan x="24.3" y="24.5" fill="#FFFFFF" font-family="'Roboto-Medium'" font-size="10.2252" letter-spacing="1">deti do Nepálu.</tspan></text>
	<g>
		<g>
			<g>
				<path fill="#FFFFFF" d="M386.6,28l-7.4-11.6c0,0,0-0.1-0.1-0.1c-1.3-1.8-3.4-2.9-5.6-2.9h-5.3V10c0-1.1-0.9-2-2-2h-91.7
					c-1.1,0-2,0.9-2,2v34.7c0,1.1,0.9,2,2,2h5c1,3.7,4.4,6.5,8.4,6.5c4,0,7.4-2.7,8.4-6.5h2.3h3.2c1,3.7,4.4,6.5,8.4,6.5
					c4,0,7.4-2.7,8.4-6.5h10h36.7c1,3.7,4.4,6.5,8.4,6.5c4,0,7.4-2.7,8.4-6.5h2.1c2.3,0,4.1-1.8,4.1-4.1V34
					C388.4,30.7,387,28.5,386.6,28z M386.3,42.7c0,1.1-0.9,2-2,2h-3.9c0,0.1,0,0.1,0,0.2c-0.2,3.5-3.1,6.3-6.6,6.3
					c-3.6,0-6.4-2.8-6.6-6.3c0-0.1,0-0.1,0-0.2h-38.2h-10.8h-1.2c0,0.1,0,0.1,0,0.2c-0.2,3.5-3.1,6.3-6.6,6.3
					c-3.6,0-6.4-2.8-6.6-6.3c0-0.1,0-0.1,0-0.2h-0.9H299h-4.4c0,0.1,0,0.1,0,0.2c-0.2,3.5-3.1,6.3-6.6,6.3c-3.6,0-6.4-2.8-6.6-6.3
					c0-0.1,0-0.1,0-0.2h-6.8V10h91.7v5.4h7.3c1.6,0,3,0.8,3.9,2l7.4,11.7c0,0,1.4,1.8,1.4,4.8V42.7z"/>
				<path fill="#FFFFFF" d="M288,39.1c-2.4,0-4.4,2-4.4,4.4c0,0.6,0.5,1,1,1c0.6,0,1-0.5,1-1c0-1.3,1.1-2.4,2.4-2.4
					c1.3,0,2.4,1.1,2.4,2.4c0,0.6,0.5,1,1,1s1-0.5,1-1C292.4,41.1,290.4,39.1,288,39.1z"/>
				<path fill="#FFFFFF" d="M373.8,39.1c-2.4,0-4.4,2-4.4,4.4c0,0.6,0.5,1,1,1c0.6,0,1-0.5,1-1c0-1.3,1.1-2.4,2.4-2.4
					c1.3,0,2.4,1.1,2.4,2.4c0,0.6,0.5,1,1,1c0.6,0,1-0.5,1-1C378.2,41.1,376.2,39.1,373.8,39.1z"/>
				<path fill="#FFFFFF" d="M379.2,28.3h-9.8v-7.5c0-0.6-0.5-1-1-1c-0.6,0-1,0.5-1,1v8.5c0,0.6,0.5,1,1,1h10.8c0.6,0,1-0.5,1-1
					C380.2,28.7,379.7,28.3,379.2,28.3z"/>
				<path fill="#FFFFFF" d="M310.3,39.1c-2.4,0-4.4,2-4.4,4.4c0,0.6,0.5,1,1,1c0.6,0,1-0.5,1-1c0-1.3,1.1-2.4,2.4-2.4
					c1.3,0,2.4,1.1,2.4,2.4c0,0.6,0.5,1,1,1c0.6,0,1-0.5,1-1C314.7,41.1,312.7,39.1,310.3,39.1z"/>
			</g>
			<path fill="none" stroke="#FFFFFF" stroke-width="3" stroke-linecap="round" stroke-linejoin="round" stroke-miterlimit="10" d="
				M79.8,17.3c0-8.2-6.6-14.8-14.8-14.8c-4.1,0-7.7,1.6-10.4,4.3l0,0l-6,6l-6-6l0,0c-2.7-2.6-6.3-4.3-10.4-4.3
				c-8.2,0-14.8,6.6-14.8,14.8c0,3.9,1.5,7.4,3.9,10l0,0l0.2,0.2c0.1,0.2,0.3,0.3,0.4,0.4l26.7,26.7v0l0,0l12.2-12.2L75.3,28
				c0.2-0.1,0.3-0.3,0.4-0.4l0.2-0.2l0,0C78.4,24.7,79.8,21.2,79.8,17.3z"/>
			
				<text transform="matrix(1 0 0 1 107.6817 34.3721)" fill="#FFFFFF" font-family="'Roboto-Regular'" font-size="17.7146" letter-spacing="1">+</text>
			
				<text transform="matrix(1 0 0 1 233.2964 34.3721)" fill="#FFFFFF" font-family="'Roboto-Regular'" font-size="17.7146" letter-spacing="1">=</text>
			<circle fill="#FFFFFF" cx="176" cy="29.6" r="29.6"/>
			<text transform="matrix(1 0 0 1 157.3384 40.378)"><tspan x="0" y="0" fill="#404041" font-family="'Roboto-Black'" font-size="28.8865" letter-spacing="2">3</tspan><tspan x="19.6" y="0" fill="#404041" font-family="'Roboto-Light'" font-size="28.8865" letter-spacing="2">€</tspan></text>
		</g>
	</g>
</g>
</svg>
