<?xml version="1.0" encoding="utf-8"?>
<!-- Generator: Adobe Illustrator 17.1.0, SVG Export Plug-In . SVG Version: 6.00 Build 0)  -->
<!DOCTYPE svg PUBLIC "-//W3C//DTD SVG 1.1//EN" "http://www.w3.org/Graphics/SVG/1.1/DTD/svg11.dtd">
<svg version="1.1" id="Layer_1" xmlns="http://www.w3.org/2000/svg" xmlns:xlink="http://www.w3.org/1999/xlink" x="0px" y="0px"
	 viewBox="0 0 255.1 255.1" enable-background="new 0 0 255.1 255.1" xml:space="preserve">
<g opacity="0.7">
	<g>
		<polygon fill="#FFFFFF" points="80.7,49.3 216.4,127.6 80.7,205.8 		"/>
	</g>
	<g>
		<path fill="#FFFFFF" d="M127.6,255.1c-34.1,0-66.1-13.3-90.2-37.4C13.3,193.7,0,161.6,0,127.6c0-34.1,13.3-66.1,37.4-90.2
			C61.5,13.3,93.5,0,127.6,0c34.1,0,66.1,13.3,90.2,37.4c24.1,24.1,37.4,56.1,37.4,90.2c0,34.1-13.3,66.1-37.4,90.2
			C193.7,241.8,161.6,255.1,127.6,255.1z M127.6,13.5c-62.9,0-114.1,51.2-114.1,114.1c0,62.9,51.2,114.1,114.1,114.1
			c62.9,0,114.1-51.2,114.1-114.1C241.6,64.7,190.5,13.5,127.6,13.5z"/>
	</g>
</g>
</svg>
