<?xml version="1.0" encoding="utf-8"?>
<!-- Generator: Adobe Illustrator 17.1.0, SVG Export Plug-In . SVG Version: 6.00 Build 0)  -->
<!DOCTYPE svg PUBLIC "-//W3C//DTD SVG 1.1//EN" "http://www.w3.org/Graphics/SVG/1.1/DTD/svg11.dtd">
<svg version="1.1" id="Layer_1" xmlns="http://www.w3.org/2000/svg" xmlns:xlink="http://www.w3.org/1999/xlink" x="0px" y="0px"
	 viewBox="0 0 552.6 392.6" enable-background="new 0 0 552.6 392.6" xml:space="preserve">
<rect x="-145.2" y="-98" display="none" width="841.9" height="595.3"/>
<g>
	<path fill="#FFFFFF" d="M247,330.1l-0.5,0.3l-0.5,0.3c-4.7,2.9-6.9,6.4-6.7,10.7l0,1l0.7-0.6c2.5-2.1,5.7-7.5,6.7-10.6L247,330.1z"
		/>
	<path fill="#FFFFFF" d="M243.1,364.3l0.3-0.6c0.8-1.6,1.5-6.8,1.4-10.9c0-1.4-0.2-2.6-0.4-3.5l-0.3-0.9l-0.3,0.4l-0.3,0.4
		c-2,2.9-3,5.9-2.9,8.7c0,2,0.7,4,1.9,5.8L243.1,364.3z"/>
	<path fill="#FFFFFF" d="M250.6,373.5l0.6,0.4l0.1-0.8c0,0,0-0.6,0-0.6c-0.1-3.2-2.5-11.4-4.4-13.9l-0.5-0.7l-0.1,0.4l-0.1,0.4
		c-0.6,1.9-0.9,3.8-0.8,5.5C245.4,368.2,247.2,371.3,250.6,373.5z"/>
	<path fill="#FFFFFF" d="M239.2,353.1l0.3,0.8l0.5-0.7c1.9-2.6,4.3-9.5,4.2-12.8l0-1l-0.4,0.3l-0.4,0.3c-1.2,1.2-5.1,5.3-4.8,10.4
		C238.7,351.4,238.9,352.2,239.2,353.1z"/>
	<path fill="#FFFFFF" d="M310.7,364.3l0.4-0.6c1.2-1.8,1.9-3.8,1.9-5.8c0.1-2.8-0.9-5.8-2.9-8.7l-0.3-0.4l-0.3-0.4l-0.3,0.9
		c-0.2,0.8-0.4,2-0.4,3.5c-0.1,4.1,0.6,9.3,1.4,10.9L310.7,364.3z"/>
	<path fill="#FFFFFF" d="M314.4,354l0.3-0.8c0.3-0.9,0.5-1.7,0.5-2.5c0.3-5.1-3.6-9.3-4.8-10.5l-0.4-0.3l-0.4-0.3l0,1
		c-0.1,3.2,2.3,10.1,4.2,12.8L314.4,354z"/>
	<path fill="#FFFFFF" d="M313.8,341.8l0.7,0.6l0.1-1c0.3-4.3-1.9-7.8-6.5-10.8l-0.5-0.3L307,330l0.3,1.1
		C308.2,334.2,311.3,339.6,313.8,341.8z"/>
	<path fill="#FFFFFF" d="M302.7,373.8l0.6-0.4c3.4-2.2,5.1-5.3,5.3-9.3c0-1.8-0.2-3.6-0.8-5.5l-0.1-0.4l-0.1-0.4l-0.5,0.7
		c-1.9,2.5-4.3,10.6-4.4,13.9c0,0,0,0.6,0,0.6L302.7,373.8z"/>
	<path fill="#FFFFFF" d="M252.5,368.1l-0.8-0.4l0.1,0.4l0.1,0.4c0.8,4.8,2.7,11.1,10.9,10.4l0.5,0l-0.1-0.5
		C262.6,376.2,255.1,369.9,252.5,368.1z"/>
	<path fill="#FFFFFF" d="M276.9,315.9c-16.6,0-30.1,13.5-30.1,30.1c0,16.6,13.5,30.1,30.1,30.1c16.6,0,30.1-13.5,30.1-30.1
		C307,329.4,293.5,315.9,276.9,315.9z M300.4,329.2c-1.5,1-3.2,2-4.9,2.8c-1-2-2.2-3.9-3.6-5.6c1.2-0.7,2.4-1.6,3.5-2.5
		C297.3,325.5,299,327.3,300.4,329.2z M287.7,319.2c2.4,1,4.7,2.3,6.8,3.9c-1,0.8-2.2,1.6-3.3,2.3c-1.5-1.7-3.1-3.2-4.9-4.6
		C286.7,320.4,287.2,319.8,287.7,319.2z M290,326.1c-1.6,0.9-3.3,1.6-5.1,2.1c-0.7-1.7-1.6-3.3-2.5-4.9c1-0.4,1.9-1,2.8-1.6
		C287,323,288.6,324.5,290,326.1z M286.5,318.8c-0.4,0.5-0.9,0.9-1.3,1.4c-1.6-1.1-3.3-2-5.1-2.8
		C282.3,317.6,284.4,318.1,286.5,318.8z M284.1,320.9c-0.7,0.5-1.5,1-2.3,1.3c-0.9-1.4-1.9-2.7-2.9-4.1
		C280.7,318.9,282.5,319.8,284.1,320.9z M277.5,318.4c1.1,1.3,2.2,2.8,3.1,4.3c-1,0.3-2.1,0.5-3.1,0.5V318.4z M277.5,324.4
		c1.3-0.1,2.6-0.3,3.8-0.7c0.9,1.5,1.7,3.1,2.5,4.8c-2,0.5-4.2,0.8-6.3,0.9V324.4z M276.2,318.4v4.8c-1.1-0.1-2.1-0.2-3.1-0.5
		C274.1,321.2,275.1,319.8,276.2,318.4z M272,322.2c-0.8-0.3-1.6-0.8-2.3-1.3c1.6-1.1,3.4-2,5.2-2.7
		C273.8,319.5,272.8,320.8,272,322.2z M273.7,317.3c-1.8,0.8-3.5,1.7-5.1,2.8c-0.5-0.4-0.9-0.9-1.3-1.4
		C269.3,318,271.5,317.6,273.7,317.3z M294.4,369.1c-4-2.2-4.1-5.3-3.9-6.4c0.2-1.1,1-0.6,1.5-0.6c2.6,0,5.4-0.8,8.8-4.3
		c3.9-3.9,5.1-12.7-0.8-18.4c-6.4-6.1-13.2-5.1-17.5,0.4c-0.9,1.1-3.1,2-5,1.9c-2.8-0.1-1,2.1-1,2.6c0,0.5-0.4,0.8-0.7,0.7
		c-1-0.3-0.6,1.1-0.6,1.6c0,0.4-0.4,0.6-0.6,0.6c-1.2,0-0.9,1.1-0.8,1.3c0,0.3-0.1,0.8-0.5,1c-0.4,0.2-0.8,1.1-0.8,1.8
		c0,1.3,1.2,2.2,3.1,3.6c2,1.5,2.2,2.8,2.2,3.8c0,1,0.1,2.6,0.6,3.7c0.5,1.3,0.5,3.6-2.2,3.7c-3.3,0.1-9.2,2.8-9.7,3
		c-1.9,0.7-4.3,0.9-6.3,0.4c-1-0.7-2-1.5-3-2.4c-0.4-1.3,0.3-2.8,1-3.7c1.1,1.1,2.7,1,3.7,1.1c0.9,0,5.4-0.7,6.1-0.9
		c0.6-0.2,0.9-0.1,1.3,0c1.7,0.6,4.1,0.8,5.1-2.5c1-3.3-1.3-2.4-1.6-2.2c-0.3,0.1-0.7,0.1-0.5-0.2c0.4-0.8-0.2-0.7-0.6-0.8
		c-0.9-0.1-2.1,0.9-2.5,1.2c-0.4,0.4-0.8,0.3-0.9,0.2c-1.2-0.6-4.9,0.3-6-1.7c0.1-0.5-0.9-8.6-1.5-10c-0.1-0.3-0.2-0.8,0.1-1.3
		c0.9-1.4,3.5,0.1,4.9,0.1c1.7-0.1,1.9-0.7,2.4-1.3c0.4-0.5,0.8-0.2,1-0.4c0.3-0.2,0-0.6,0.1-0.8c0.1-0.2,0.2-0.1,0.5-0.4
		c0.3-0.2,0-0.8,0.1-1c0.4-0.6,1.5-0.1,0.9-1.7c-0.4-0.9,0.1-1.9,0.6-2.5c0.8-1,3.9-5.4-1.6-10c-5.2-4.3-10.5-4-13.9-0.3
		c-3.4,3.7-1.7,9.1-1.4,10.5c0.4,1.4-0.7,2.7-1.8,3.3c-0.9,0.4-3.1,1.9-4.7,3.3c0.2-11.6,7.3-21.8,18.1-26.2c0.5,0.6,1,1.1,1.5,1.6
		c-1.2,0.9-3.8,3.2-3.8,3.2s0.4,0.1,0.7,0.1c0.2,0.1,0.7,0.2,0.7,0.2s2.3-2,3.4-2.7c0.8,0.6,1.8,1.2,2.8,1.6
		c-0.5,0.9-1.8,3.4-1.8,3.4s0.3,0.2,0.6,0.4c0.3,0.2,0.4,0.3,0.4,0.3s1.4-2.7,2-3.6c1.2,0.4,2.5,0.6,3.8,0.7v5
		c-0.7,0-2.5-0.1-3.3-0.2l-0.5,0l0.3,0.4c0.2,0.3,0.4,0.6,0.5,0.8l0.1,0.1l0.1,0c0.5,0,2.2,0.1,2.8,0.1v9h1.2v-2.1
		c1.8-0.1,3.4-0.2,5.2-0.4l0.1,0l1.6-1.4l-0.9,0.1c-2,0.3-3.7,0.4-5.2,0.5c0,0-0.5,0-0.8,0v-5.7c2.3-0.1,4.5-0.4,6.8-1
		c0.6,1.5,1.7,5.1,1.7,5.1l1.2-0.4c0,0-1.1-3.6-1.7-5.1c1.9-0.6,3.7-1.4,5.4-2.3c1.4,1.7,2.6,3.6,3.6,5.5c-0.9,0.4-2.5,1-2.5,1
		c1.3,0.1,2.3,0.4,2.3,0.4s0.5-0.2,0.8-0.3c0.1,0.3,0.3,0.8,0.3,0.8l1.6,0.7l-0.2-0.5c0,0-0.5-1.3-0.7-1.6c1.7-0.8,3.4-1.8,5-2.9
		c3.1,4.7,4.7,10.2,4.7,15.8C305.8,355.4,301.3,363.8,294.4,369.1z"/>
	<path fill="#28AAE2" d="M297.5,95.3l-7.2-1.1V72c2.9-2.5,5.5-3.2,8.9-3.3c3.9-0.3,8.6-0.7,13.8-0.9V47.5h-6.7
		c-7.7,0-11.8,6.7-16,12.1V48.7h-27.9v15.2c2.2,0.5,4.3,0.9,6.3,1.3v29c-2.2,0.3-4.3,0.7-6.6,1.1v15.2h35.4V95.3z"/>
	<path fill="#28AAE2" d="M289.4,208.1h3.8c9,0,18.1-2.4,25.3-7.6V186h-17.2l-0.6,2.9c-1,3.3-3.6,4.3-7.5,4.3h-4.1c-4.5,0-8-2-8-7.5
		V183h39.2v-14.4c0-17.4-8.5-25.3-27.4-25.3H289c-19.7,0-29.2,8.2-29.2,26.4v9.1C259.8,200,267.6,208.1,289.4,208.1z M281.1,164.9
		c0-4.7,3.2-7.4,8.3-7.4h3.3c4.7,0,8.2,2.4,8.2,7v5.7h-19.8V164.9z"/>
	<polygon fill="#28AAE2" points="362.4,31.6 362.4,28.7 346.7,21 333.6,38.3 342.5,43.8 	"/>
	<polygon fill="#28AAE2" points="496.1,223.5 496.1,220.7 480.5,212.9 467.3,230.2 476.2,235.7 	"/>
	<path fill="#FFFFFF" d="M290.7,378.4l-0.1,0.5l0.5,0c8.1,0.7,10.1-5.6,10.9-10.4l0.1-0.4l0.1-0.4l-0.8,0.4
		C298.7,369.9,291.3,376.2,290.7,378.4z"/>
	<path fill="#FFFFFF" d="M235.8,331.8l-0.2,0.5c-0.3,0.8-0.8,2.3-1.1,4.5c-0.4,3-0.3,7.2,2.3,10.4c0,0,0.3,0.4,0.3,0.4l0.3,0.4
		l0.4-1.9c0.4-3.4-0.1-10.5-1.4-13.7l-0.4-1.1L235.8,331.8z"/>
	<path fill="#28AAE2" d="M227.1,159.2c3.6,0,5.7,0.1,8.5,0.3l1.8,10.2h16.2v-23.6c-9-1.8-15.2-2.9-23.6-2.9h-6.6
		c-16.3,0-26.2,8.3-26.2,24.1v14.8c0,17.4,8,25.8,26.2,25.8h5.6c9,0,17.9-3.1,25.2-7.6v-15.2h-17.6l-0.5,2.1
		c-1.1,3.3-3.7,4.7-7.6,4.7h-2.1c-4.5,0-7.7-1.4-7.7-8.2v-15.5C219,161.5,221.8,159.2,227.1,159.2z"/>
	<path fill="#28AAE2" d="M257.4,286.3c-2.1-0.3-4.1-0.8-6.1-1v-25.9l27.4,43h23.1v-62.9c2.6-0.5,5.3-0.9,8.2-1.5v-16.1h-34.3V238
		c2.2,0.3,4.3,0.8,6.2,1v28.3l-29.7-45.4h-29V238c3.3,0.7,6.1,1.1,8.3,1.6v45.4c-2.5,0.2-5.2,0.7-7.8,1.3v16.1h33.7V286.3z"/>
	<path fill="#FFFFFF" d="M315.4,334.9c0,0,0.1-0.3,0.1-0.3c0.6-4.5-3.4-8.7-5.2-10.2l-0.5-0.4l-0.5-0.4l0.2,1.2
		c0.8,4.4,2.6,8.3,5.1,10.5l0.6,0.5L315.4,334.9z"/>
	<path fill="#FFFFFF" d="M238.4,334.9l0.2,0.9l0.6-0.5c2.5-2.3,4.3-6.1,5.1-10.5l0.2-1.2l-0.5,0.4l-0.5,0.4
		c-1.8,1.6-5.8,5.7-5.2,10.2C238.3,334.6,238.4,334.9,238.4,334.9z"/>
	<path fill="#FFFFFF" d="M246.1,371.6l-0.3-0.9c-1.2-3.2-7.3-10.8-11.2-13.2l-0.9-0.6l0.1,0.5l0.1,0.5c0.9,4.3,5,11.3,11.3,13.3
		L246.1,371.6z"/>
	<path fill="#FFFFFF" d="M254.7,379.7l0.7-0.1L255,379c-1.5-2.2-11.3-7.8-14.7-8.3l-0.9-0.2l0.2,0.4l0.2,0.4
		C242.4,375.6,246.7,381.1,254.7,379.7z"/>
	<path fill="#FFFFFF" d="M276.9,382.4c-5.4-2.3-14.2-3.7-25.4-0.7l-1.3,0.3l1.2,0.5c5.1,2.1,11.5,2.7,15.2,1.5
		c1.4-0.5,2.3-1.2,3.3-2.2c1.8,0.2,3.5,0.7,5.1,1.5c-1.5,0.8-6.2,3.6-9.4,7.8l-0.2,0.3l0.3,0.3c0.2,0.3,0.9,0.8,1.3,0.9l0.3,0.1
		l0.2-0.2c2.3-2.8,5.6-6,9.4-8.2c3.8,2.2,7.1,5.4,9.4,8.2l0.2,0.2l0.3-0.1c0.4-0.1,1-0.6,1.3-0.9l0.3-0.3L288,391
		c-3.2-4.2-7.9-7-9.4-7.8c1.7-0.8,3.4-1.3,5.1-1.5c1,1,1.9,1.8,3.3,2.2c3.7,1.3,10.1,0.6,15.3-1.5l1.2-0.5l-1.3-0.3
		C291.1,378.7,282.3,380.1,276.9,382.4z"/>
	<path fill="#FFFFFF" d="M298.8,379l-0.4,0.6l0.7,0.1c8,1.4,12.3-4.1,14.9-8.3l0.2-0.4l0.2-0.4l-0.9,0.2
		C310.1,371.2,300.3,376.7,298.8,379z"/>
	<path fill="#FFFFFF" d="M204.5,329.2v9.7h-7.7v5.9h7.7v39h8.5v-39h10.4v-5.9H213v-8.2c-0.3-4.9,2.5-6.2,7.4-6.2
		c1.4,0,2.9,0.2,4.3,0.3v-7.1c-2.1-0.4-4-0.9-6.1-0.9C212.2,316.7,204.7,319.3,204.5,329.2z"/>
	<path fill="#FFFFFF" d="M238.8,359.1l0.7,0.5l0-0.9c-0.1-2.9-3.4-11.4-5.9-14.4l-0.7-0.9l0,0.5l0,0.6
		C232.5,347.6,232.7,355.1,238.8,359.1z"/>
	<path fill="#FFFFFF" d="M175.1,337.5c-14.2,0-20.9,11-20.9,24.2c0,13.2,5.7,23.4,20.1,23.4c10.7,0,18.6-5.1,20-15.3h-9
		c-1,6.5-4.3,9.1-10.9,9.1c-8.7,0-11.9-8.1-11.3-16h31.7v-4.2C194.8,346.3,188.5,337.8,175.1,337.5z M163.2,357
		c0-7.4,4.2-13.3,11.3-13.3c8.2,0,11.6,5.8,11.5,13.3H163.2z"/>
	<path fill="#FFFFFF" d="M308,370.7l-0.3,0.9l0.9-0.3c6.3-2,10.4-9,11.3-13.3l0.1-0.5l0.1-0.5l-0.9,0.6
		C315.3,360,309.2,367.5,308,370.7z"/>
	<path fill="#28AAE2" d="M208.9,111.4c8,0,14.5-4.7,20-9.1v8.1h28.2V95.2l-6.6-1.1V30h-28.4v13.3c3.1,0.5,5.2,1,6.8,1.4v8.4
		c-7.1-3.8-10.7-5.5-19.1-5.5h-1.7c-9.9,0-18.2,7.1-18.2,20.6v19.9c0,16.7,7.4,23.3,17.3,23.3H208.9z M211.6,73.6
		c0-5.4,0.8-8.3,6.6-8.3h1.5c3.2,0,5.4,0.2,9.3,2.1V90c-3.3,2.1-6.2,3-9.3,3h-1.5c-5.6,0-6.6-1.8-6.6-11V73.6z"/>
	<path fill="#28AAE2" d="M507.6,261.4c0-13.6-7.8-22.1-21-22.1H481c-7.9,0-19.4,0.9-28.4,2.6v19h16.1l0.9-5.4
		c2.4-0.6,6.1-0.7,8.5-0.7c5.2,0,7.8,2.1,7.8,7.5v2.4c-7.8,0.8-11.8,1.1-20,2.1c-9.9,1.1-18.2,2.9-18.2,16.6v2.5
		c0,16.2,6.9,17.5,17.3,17.5h1.7c8,0,13.8-3.9,19.2-8.4v7.4H514v-15.2l-6.4-1.1V261.4z M486,283.3c-2.5,2.3-6.3,4.4-9.4,4.4H475
		c-3.8,0-5.2-1.3-5.2-4.6v-2c0-3,1.6-4.6,5.8-5.3c3.8-0.8,7.6-1.3,10.3-1.7V283.3z"/>
	<path fill="#28AAE2" d="M158.9,126v13.3c3.1,0.5,5.2,1,6.8,1.4v8.4c-7.1-3.8-10.7-5.5-19.1-5.5h-1.7c-9.9,0-18.2,7.1-18.2,20.6V184
		c0,16.7,7.4,23.3,17.2,23.3h1.7c8,0,14.5-4.7,20-9.1v8h28.2v-15.2l-6.6-1.1V126H158.9z M165.7,186c-3.3,2.1-6.2,3-9.3,3h-1.5
		c-5.6,0-6.6-1.8-6.6-11v-8.4c0-5.4,0.8-8.3,6.6-8.3h1.5c3.2,0,5.4,0.2,9.3,2.1V186z"/>
	<path fill="#28AAE2" d="M546,286.1v-64.2h-27.9v15.2c2.2,0.5,4.3,0.9,6.3,1.3v47.7c-2.2,0.3-4.3,0.7-6.6,1.2v15.2h34.7v-15.2
		C550.3,286.8,548.2,286.4,546,286.1z"/>
	<path fill="#28AAE2" d="M344.4,239.3h-3.9c-19.7,0-29.2,8.2-29.2,26.4v9.1c0,21.2,7.8,29.2,29.7,29.2h3.8c9,0,18.1-2.4,25.3-7.6
		v-14.5h-17.3l-0.6,2.9c-1,3.3-3.6,4.3-7.5,4.3h-4.1c-4.5,0-8-2-8-7.5V279h39.2v-14.4C371.8,247.2,363.3,239.3,344.4,239.3z
		 M352.3,266.3h-19.8v-5.4c0-4.7,3.2-7.4,8.3-7.4h3.3c4.7,0,8.2,2.4,8.2,7V266.3z"/>
	<path fill="#FFFFFF" d="M316.7,347.5c0,0,0.3-0.4,0.3-0.4c2.6-3.2,2.7-7.4,2.3-10.4c-0.3-2.1-0.8-3.7-1.1-4.5l-0.2-0.5l-0.2-0.5
		l-0.4,1.1c-1.2,3.2-1.8,10.3-1.4,13.7l0.4,1.9L316.7,347.5z"/>
	<path fill="#FFFFFF" d="M321,344l0-0.5l-0.7,0.9c-2.5,3.1-5.8,11.6-5.9,14.4l0,0.9l0.7-0.5c6.1-4,6.2-11.5,6-14.6L321,344z"/>
	<path fill="#28AAE2" d="M356,92.9c-1,3.3-3.6,4.3-7.5,4.3h-4.1c-4.5,0-8-2-8-7.5V87h39.2V72.7c0-17.4-8.5-25.3-27.4-25.3h-3.9
		c-19.7,0-29.2,8.2-29.2,26.4v9.1c0,21.2,7.8,29.2,29.7,29.2h3.8c9,0,18.1-2.4,25.3-7.6V90h-17.2L356,92.9z M336.4,69
		c0-4.7,3.2-7.4,8.3-7.4h3.3c4.7,0,8.2,2.4,8.2,7v5.7h-19.8V69z"/>
	<path fill="#28AAE2" d="M425.6,239.3h-1.7c-8.1,0-14.6,4.6-20.2,8.3v-6.9h-27.9v15.2c2.2,0.5,4.3,0.9,6.3,1.3v51.1
		c-2.2,0.3-4.3,0.7-6.6,1.2v15.2h36.8v-15.2c-2.3-0.5-6.4-0.8-8.6-1.2v-9.3c6.9,2.4,10.8,4.5,19.1,4.5h1.8c9.9,0,18.2-6.2,18.2-19.8
		v-21C442.7,245.8,435.6,239.3,425.6,239.3z M429.4,282.8l-7.9-1l1,7.9l-6.4-4.8c0,0,0,0,0,0l-3.1,7.3L410,285l0,0l-6.4,4.8l1-7.9
		l-7.9,1l4.8-6.4c0,0,0,0,0,0l-7.3-3.1l7.3-3.1c0,0,0,0,0,0l-4.8-6.4l7.9,1l-1-7.9l6.4,4.8l0,0l3.1-7.3l3.1,7.3c0,0,0,0,0,0l6.4-4.8
		l-1,7.9l7.9-1l-4.8,6.4c0,0,0,0,0,0l7.3,3.1l-7.3,3.1v0L429.4,282.8z"/>
	<path fill="#28AAE2" d="M79.6,95.1c0,10.8,5.9,17,15.4,17h1.5c7.7,0,17.8-2.8,22.7-6.2V93.5c-3.8,0.2-7.2,0.2-11,0.2h-1.3
		c-5.2,0-5.6-1.4-5.6-9.8V64.6h17.1V48.7h-17.1V31.8c-6.9,0.1-9.7,0.2-18.4,1.8v7.7c0,5.1-2.6,8.3-6.6,8.3h-3.8v14.9h7.1V95.1z"/>
	<polygon fill="#28AAE2" points="41.1,25.3 54.6,10.4 48.4,4.9 34.5,14.1 20.6,4.9 14.4,10.4 27.9,25.3 	"/>
	<path fill="#28AAE2" d="M16.7,75.5l20,5.1c7.4,2,8.7,3.2,8.7,7v1.5c-0.1,4.7-1.8,5.9-9.2,5.9h-2c-4.8,0-7.7-0.2-11.2-1.3L20.7,85
		H1.8v21.8c13.3,3.8,18.5,5.2,29.8,5.2h6c21.2,0,30.4-7.2,30.4-23.9v-4.9c0-11.8-4-17-16.1-20l-22.7-5.5c-3.6-0.9-4.8-2.5-4.8-5.5
		v-0.8c0-4.3,2-5.6,7.4-5.6h4.6c3.2,0,6.3,0.1,9,1.4l2.5,9.2h17.8V32.5c-10.8-2.8-19.3-4-30.1-4h-4.3C10,28.5,0.9,35.6,0.9,52.4v1
		C0.9,67.6,4.6,72,16.7,75.5z"/>
	<path fill="#28AAE2" d="M16.7,171.5l20,5.1c7.4,2,8.7,3.2,8.7,7v1.5c-0.1,4.7-1.8,5.9-9.2,5.9h-2c-4.8,0-7.7-0.2-11.2-1.3l-2.4-8.7
		H1.8v21.8c13.3,3.8,18.5,5.2,29.8,5.2h6c21.2,0,30.4-7.2,30.4-23.9v-4.9c0-11.8-4-17-16.1-20l-22.7-5.5c-3.6-0.9-4.8-2.5-4.8-5.5
		v-0.8c0-4.3,2-5.6,7.4-5.6h4.6c3.2,0,6.3,0.1,9,1.4l2.5,9.2h17.8v-23.7c-10.8-2.8-19.3-4-30.1-4h-4.3c-21.3,0-30.4,7.1-30.4,23.9v1
		C0.9,163.6,4.6,167.9,16.7,171.5z"/>
	<path fill="#28AAE2" d="M110.7,164.6c3.9-0.3,8.6-0.7,13.8-0.9v-20.2h-6.7c-7.7,0-11.8,6.7-16,12.1v-10.8H73.9v15.2
		c2.2,0.5,4.3,0.9,6.3,1.3v29c-2.2,0.3-4.3,0.7-6.6,1.1v15.2h35.4v-15.2l-7.2-1.1v-22.2C104.8,165.4,107.4,164.7,110.7,164.6z"/>
	<path fill="#28AAE2" d="M190,279v-14.4c0-17.4-8.5-25.3-27.4-25.3h-3.9c-19.7,0-29.2,8.2-29.2,26.4v9.1c0,21.2,7.8,29.2,29.7,29.2
		h3.8c9,0,18.1-2.4,25.3-7.6v-14.5H171l-0.6,2.9c-1,3.3-3.6,4.3-7.5,4.3h-4.1c-4.5,0-8-2-8-7.5V279H190z M150.8,260.9
		c0-4.7,3.2-7.4,8.3-7.4h3.3c4.7,0,8.2,2.4,8.2,7v5.7h-19.8V260.9z"/>
	<path fill="#28AAE2" d="M153.3,112.1h3.8c9,0,18.1-2.4,25.3-7.6V90h-17.2l-0.6,2.9c-1,3.3-3.6,4.3-7.5,4.3h-4.1c-4.5,0-8-2-8-7.5
		V87h39.2V72.7c0-17.4-8.5-25.3-27.4-25.3h-3.9c-19.7,0-29.2,8.2-29.2,26.4v9.1C123.6,104,131.4,112.1,153.3,112.1z M144.9,69
		c0-4.7,3.2-7.4,8.3-7.4h3.3c4.7,0,8.2,2.4,8.2,7v5.7h-19.8V69z"/>
	<path fill="#28AAE2" d="M71.9,253.2v-6.1c0-18.1-7.8-25.1-28.2-25.2H0V238c3.2,0.6,5.9,1,8.3,1.4v45.7c-2.8,0.3-5.3,0.8-7.8,1.3
		v16.1h39.4v-16.1c-2.9-0.6-6-1.2-9.1-1.5v-8.2h13C63.8,276.7,71.6,270,71.9,253.2z M50.7,251.4c-0.1,5.5-2.6,7.7-8.6,7.7H30.8
		v-18.7h11.3c6.2,0,8.6,2.3,8.6,8V251.4z"/>
	<rect x="96.3" y="318.9" fill="#FFFFFF" width="10.2" height="9.3"/>
	<rect x="97.1" y="338.7" fill="#FFFFFF" width="8.5" height="45.2"/>
	<path fill="#28AAE2" d="M104.6,263.9c2.9-2.5,5.5-3.2,8.9-3.3c3.9-0.3,8.6-0.7,13.8-0.9v-20.2h-6.7c-7.7,0-11.8,6.7-16,12.1v-10.8
		H76.7v15.2c2.2,0.5,4.3,0.9,6.3,1.3v29c-2.2,0.3-4.3,0.7-6.6,1.2v15.2h35.4v-15.2l-7.2-1.2V263.9z"/>
	<path fill="#FFFFFF" d="M32.5,362c0,1.1-0.1,6.4-1.7,10.6c-1.8,4.7-6.6,6.5-10.1,6.5c-8.2,0-10-5.8-10-13.6v-26.8H2.2V369
		c0,9.1,5.4,16.3,14.9,16.3c6.3,0,12.1-2.3,15.5-8h0.2v6.7h8.4v-45.2h-8.6V362z"/>
	<path fill="#FFFFFF" d="M132.3,378.9c-8.1,0-11.3-7.1-11.3-17.6c0-10.6,3.1-17.6,11.3-17.6c6.1,0,8.8,3.9,9.2,9.6h8.5
		c-0.4-9.8-7.6-15.8-17.1-15.8c-14.2,0-20.9,11-20.9,24.2c0,13.2,5.7,23.4,20.1,23.4c9.9,0,17.4-6.2,18.2-16.3h-8.5
		C141.4,375.3,137.9,378.9,132.3,378.9z"/>
	<path fill="#FFFFFF" d="M72,337.4c-4.5,0-10.8,2.3-13.7,8h-0.2v-6.7h-8.4V384h8.6v-24.6c0-8.8,2.3-10.8,3.6-12.1
		c3.6-3.6,8.3-3.3,8.3-3.3c7.2,0,10.4,4.1,10.4,11.5V384h8.6v-31.3C89.2,338.2,75.2,337.4,72,337.4z"/>
</g>
</svg>
