<?xml version="1.0" encoding="utf-8"?>
<!-- Generator: Adobe Illustrator 17.1.0, SVG Export Plug-In . SVG Version: 6.00 Build 0)  -->
<!DOCTYPE svg PUBLIC "-//W3C//DTD SVG 1.1//EN" "http://www.w3.org/Graphics/SVG/1.1/DTD/svg11.dtd">
<svg version="1.1" id="Layer_1" xmlns="http://www.w3.org/2000/svg" xmlns:xlink="http://www.w3.org/1999/xlink" x="0px" y="0px"
	 viewBox="0 0 287 69" enable-background="new 0 0 287 69" xml:space="preserve">
<g>
	<g>
		<path fill="#FFFFFF" d="M247.2,0c-15,0-27.1,12.2-27.1,27.1c0,15,12.2,27.1,27.1,27.1c15,0,27.1-12.2,27.1-27.1
			C274.3,12.2,262.1,0,247.2,0 M268.4,12c-1.4,0.9-2.9,1.8-4.4,2.5c-0.9-1.8-2-3.5-3.2-5.1c1.1-0.7,2.2-1.4,3.2-2.3
			C265.6,8.6,267.1,10.2,268.4,12 M256.9,3c2.2,0.9,4.2,2,6.1,3.5c-0.9,0.8-1.9,1.5-3,2.1c-1.3-1.5-2.8-2.9-4.5-4.1
			C256.1,4,256.5,3.5,256.9,3 M259,9.1c-1.5,0.8-3,1.4-4.6,1.9c-0.7-1.5-1.4-3-2.3-4.4c0.9-0.4,1.7-0.9,2.5-1.4
			C256.3,6.3,257.7,7.7,259,9.1 M255.8,2.6c-0.4,0.4-0.8,0.8-1.2,1.2c-1.4-1-3-1.8-4.6-2.5C252.1,1.5,254,1.9,255.8,2.6 M253.7,4.5
			c-0.7,0.5-1.4,0.9-2.1,1.2C250.8,4.4,250,3.2,249,2C250.7,2.7,252.2,3.5,253.7,4.5 M247.8,2.2c1,1.2,1.9,2.5,2.8,3.8
			c-0.9,0.3-1.9,0.4-2.8,0.5V2.2z M247.8,7.7c1.2,0,2.3-0.3,3.4-0.6c0.8,1.4,1.6,2.8,2.2,4.3c-1.8,0.5-3.7,0.7-5.6,0.8V7.7z
			 M246.6,2.3v4.3c-0.9,0-1.9-0.2-2.8-0.5C244.7,4.8,245.6,3.5,246.6,2.3 M242.8,5.7c-0.7-0.3-1.4-0.7-2.1-1.2c1.5-1,3-1.8,4.7-2.5
			C244.5,3.2,243.6,4.4,242.8,5.7 M244.4,1.3c-1.6,0.7-3.1,1.5-4.6,2.5c-0.4-0.4-0.8-0.8-1.2-1.2C240.4,1.9,242.4,1.5,244.4,1.3
			 M262.9,47.8c-3.6-2-3.7-4.7-3.5-5.7c0.2-1,0.9-0.6,1.3-0.6c2.4,0,4.9-0.7,7.9-3.8c3.5-3.5,4.6-11.4-0.8-16.5
			c-5.7-5.5-11.9-4.6-15.8,0.4c-0.8,1-2.8,1.8-4.5,1.7c-2.5-0.1-0.9,1.9-0.9,2.3c0,0.4-0.4,0.7-0.6,0.6c-0.9-0.2-0.5,1-0.5,1.4
			c0,0.4-0.4,0.6-0.5,0.6c-1.1,0-0.8,1-0.7,1.2c0,0.3-0.1,0.7-0.4,0.9c-0.3,0.2-0.7,1-0.7,1.7c0,1.2,1.1,2,2.8,3.3
			c1.8,1.3,2,2.6,2,3.5c0,0.9,0.1,2.3,0.5,3.3c0.5,1.2,0.4,3.3-2,3.4c-3,0.1-8.3,2.5-8.7,2.7c-1.7,0.6-3.9,0.8-5.6,0.4
			c-0.9-0.7-1.8-1.4-2.7-2.1c-0.3-1.2,0.3-2.5,0.9-3.4c1,1,2.5,0.9,3.3,1c0.8,0,4.9-0.6,5.5-0.8c0.6-0.2,0.8-0.1,1.2,0
			c1.5,0.6,3.7,0.7,4.5-2.2c0.9-3-1.2-2.1-1.4-2c-0.3,0.1-0.6,0.1-0.5-0.2c0.4-0.8-0.2-0.7-0.5-0.7c-0.8-0.1-1.9,0.8-2.3,1.1
			c-0.4,0.3-0.7,0.3-0.8,0.2c-1.1-0.5-4.4,0.2-5.4-1.5c0.1-0.5-0.8-7.7-1.3-9c-0.1-0.3-0.2-0.7,0.1-1.2c0.8-1.3,3.1,0.1,4.4,0.1
			c1.5,0,1.7-0.7,2.1-1.2c0.4-0.5,0.7-0.2,0.9-0.4c0.3-0.2,0-0.5,0.1-0.7c0.1-0.2,0.2-0.1,0.5-0.3c0.3-0.2,0-0.7,0.1-0.9
			c0.4-0.6,1.4-0.1,0.8-1.6c-0.3-0.8,0.1-1.7,0.6-2.2c0.7-0.9,3.5-4.9-1.4-9c-4.7-3.9-9.5-3.6-12.6-0.3c-3.1,3.3-1.5,8.2-1.2,9.5
			c0.3,1.3-0.6,2.4-1.7,2.9c-0.8,0.4-2.8,1.7-4.2,2.9c0.2-10.5,6.6-19.6,16.3-23.5c0.4,0.5,0.9,1,1.4,1.5c-1.1,0.8-3.4,2.9-3.4,2.9
			s0.3,0,0.6,0.1c0.2,0,0.6,0.2,0.6,0.2s2.1-1.8,3.1-2.5c0.8,0.6,1.6,1.1,2.5,1.4c-0.5,0.8-1.7,3-1.7,3s0.3,0.2,0.5,0.3
			c0.2,0.2,0.4,0.3,0.4,0.3s1.3-2.4,1.8-3.3c1.1,0.4,2.2,0.6,3.4,0.6v4.5c-0.6,0-2.3-0.1-2.9-0.2l-0.4,0l0.2,0.3
			c0.2,0.3,0.3,0.5,0.4,0.7l0.1,0.1l0.1,0c0.5,0,2,0.1,2.5,0.1v8.1h1.1v-1.9c1.7-0.1,3-0.2,4.7-0.3l0.1,0l1.5-1.3l-0.8,0.1
			c-1.8,0.2-3.3,0.3-4.7,0.4c0,0-0.5,0-0.7,0v-5.2c2,0,4.1-0.3,6.1-0.9c0.5,1.3,1.6,4.6,1.6,4.6l1.1-0.3c0,0-1-3.2-1.6-4.6
			c1.7-0.5,3.3-1.2,4.9-2.1c1.2,1.5,2.3,3.2,3.2,5c-0.8,0.4-2.3,0.9-2.3,0.9c1.2,0.1,2.1,0.4,2.1,0.4s0.4-0.2,0.7-0.3
			c0.1,0.2,0.3,0.7,0.3,0.7l1.5,0.6l-0.2-0.4c0,0-0.5-1.2-0.6-1.4c1.5-0.8,3.1-1.6,4.5-2.6c2.8,4.2,4.2,9.1,4.2,14.2
			C273.2,35.6,269.2,43.1,262.9,47.8"/>
		<path fill="#FFFFFF" d="M217.6,7.2l-0.4,0.4c-1.6,1.4-5.2,5.1-4.7,9.2c0,0,0.1,0.3,0.1,0.3c0,0,0.2,0.8,0.2,0.8l0.5-0.5
			c2.2-2,3.9-5.5,4.6-9.5l0.2-1.1L217.6,7.2z"/>
		<path fill="#FFFFFF" d="M210.2,14.3l-0.2,0.5c-0.3,0.7-0.7,2.1-1,4c-0.3,2.7-0.3,6.5,2.1,9.3c0,0,0.3,0.3,0.3,0.3l0.3,0.3l0.3-1.7
			c0.4-3.1-0.1-9.5-1.2-12.3l-0.4-1L210.2,14.3z"/>
		<path fill="#FFFFFF" d="M207.5,25.3l0,0.5c-0.2,2.7-0.1,9.5,5.4,13.1l0.6,0.4l0-0.8c-0.1-2.6-3.1-10.2-5.3-13l-0.6-0.8L207.5,25.3
			z"/>
		<path fill="#FFFFFF" d="M208.5,37.4l0.1,0.5c0.8,3.9,4.5,10.2,10.2,12l0.8,0.3l-0.3-0.8c-1.1-2.9-6.5-9.7-10.1-11.9l-0.8-0.5
			L208.5,37.4z"/>
		<path fill="#FFFFFF" d="M219.9,13.1l-0.5,0.3c-4.2,2.6-6.2,5.7-6.1,9.6c0,0,0,0.9,0,0.9l0.6-0.5c2.3-1.9,5.2-6.7,6-9.5
			c0,0,0.3-1,0.3-1L219.9,13.1z"/>
		<path fill="#FFFFFF" d="M217.4,21.5l-0.3,0.3c-1.1,1-4.6,4.8-4.3,9.4c0,0.7,0.2,1.5,0.5,2.3l0.2,0.7l0.5-0.6
			c1.7-2.4,3.9-8.6,3.8-11.5l0-0.9L217.4,21.5z"/>
		<path fill="#FFFFFF" d="M217.6,29.6l-0.2,0.4c-1.8,2.6-2.7,5.3-2.6,7.8c0,1.8,0.6,3.6,1.7,5.2l0.4,0.5l0.3-0.6
			c0.8-1.4,1.4-6.1,1.3-9.8c0-1.3-0.2-2.4-0.4-3.1l-0.2-0.8L217.6,29.6z"/>
		<path fill="#FFFFFF" d="M219.7,38.1l-0.1,0.4c-0.5,1.7-0.8,3.4-0.7,5c0.1,3.6,1.7,6.4,4.7,8.3l0.5,0.3l0.1-0.7c0,0,0-0.6,0-0.6
			c-0.1-2.9-2.3-10.3-4-12.5l-0.5-0.6L219.7,38.1z"/>
		<path fill="#FFFFFF" d="M213.7,49.5l0.2,0.4c2.3,3.8,6.2,8.8,13.4,7.5l0.6-0.1l-0.3-0.5c-1.4-2-10.1-7-13.3-7.5l-0.8-0.1
			L213.7,49.5z"/>
		<path fill="#FFFFFF" d="M224.4,59.2L224.4,59.2l-1.1,0.3l1.1,0.4c4.6,1.9,10.4,2.4,13.7,1.3c1.3-0.4,2-1.1,3-2
			c5.9,0.6,11.4,5.5,14.6,9.5l0.2,0.2l0.2-0.1c0.4-0.1,0.9-0.6,1.2-0.8l0.2-0.2l-0.2-0.3c-3.4-4.4-8.6-7.1-8.8-7.2
			C243.7,58,235.3,56.2,224.4,59.2"/>
		<path fill="#FFFFFF" d="M224.6,47l0.1,0.4c0.7,4.3,2.4,10,9.8,9.4l0.5,0l-0.1-0.5c-0.5-2-7.2-7.7-9.6-9.3l-0.7-0.4L224.6,47z"/>
		<path fill="#FFFFFF" d="M276.5,6.8l0.2,1.1c0.7,4,2.4,7.4,4.6,9.5l0.5,0.5c0,0,0.2-0.8,0.2-0.8c0,0,0.1-0.3,0.1-0.3
			c0.6-4.1-3.1-7.8-4.7-9.2l-0.4-0.4L276.5,6.8z"/>
	</g>
	<g>
		<path fill="#FFFFFF" d="M284.1,13.8l-0.4,1c-1.1,2.9-1.6,9.3-1.2,12.3l0.3,1.7l0.3-0.3c0,0,0.3-0.3,0.3-0.3
			c2.3-2.8,2.4-6.7,2.1-9.3c-0.2-1.9-0.7-3.3-1-4l-0.2-0.5L284.1,13.8z"/>
		<path fill="#FFFFFF" d="M286.9,24.8l-0.6,0.8c-2.2,2.7-5.2,10.4-5.3,13l0,0.8l0.7-0.4c5.5-3.6,5.6-10.4,5.4-13.1l0-0.5L286.9,24.8
			z"/>
	</g>
	<g>
		<path fill="#FFFFFF" d="M286.1,36.9l-0.8,0.5c-3.5,2.2-9,9-10.1,11.9l-0.3,0.8l0.8-0.3c5.7-1.8,9.4-8.1,10.2-12l0.1-0.5
			L286.1,36.9z"/>
		<path fill="#FFFFFF" d="M274.3,12.7l0.3,1c0.8,2.8,3.6,7.7,5.8,9.6l0.6,0.5l0-0.9c0.2-3.9-1.7-7-5.9-9.7l-0.4-0.3L274.3,12.7z"/>
		<path fill="#FFFFFF" d="M276.8,21.2l0,0.9c-0.1,2.9,2.1,9.1,3.8,11.5l0.5,0.6l0.2-0.7c0.3-0.8,0.4-1.6,0.5-2.3
			c0.3-4.6-3.2-8.4-4.3-9.4l-0.3-0.3L276.8,21.2z"/>
		<path fill="#FFFFFF" d="M276.7,29.2l-0.2,0.8c-0.2,0.7-0.3,1.8-0.4,3.1c-0.1,3.7,0.5,8.4,1.3,9.8l0.3,0.6L278,43
			c1.1-1.6,1.7-3.4,1.7-5.2c0.1-2.5-0.8-5.2-2.6-7.8l-0.2-0.4L276.7,29.2z"/>
		<path fill="#FFFFFF" d="M274.7,37.8l-0.5,0.6c-1.7,2.2-3.9,9.6-3.9,12.5c0,0,0,0.5,0,0.6l0.1,0.7l0.5-0.3c3-1.9,4.6-4.7,4.7-8.3
			c0-1.6-0.2-3.3-0.7-5l-0.1-0.4L274.7,37.8z"/>
		<path fill="#FFFFFF" d="M281,49.1l-0.8,0.1c-3.1,0.5-11.9,5.5-13.3,7.5l-0.3,0.5l0.6,0.1c7.2,1.3,11.1-3.7,13.4-7.5l0.2-0.4
			L281,49.1z"/>
		<path fill="#FFFFFF" d="M246.1,60.4c-0.2,0.1-5.5,2.8-8.8,7.2l-0.2,0.3l0.2,0.2c0.2,0.2,0.8,0.7,1.2,0.8l0.2,0.1l0.2-0.2
			c3.2-4,8.7-8.9,14.6-9.5c0.9,0.9,1.7,1.6,3,2c3.4,1.1,9.1,0.6,13.7-1.3l1.1-0.4l-1.1-0.3C259.1,56.2,250.8,58,246.1,60.4"/>
		<path fill="#FFFFFF" d="M269.9,46.6l-0.7,0.4c-2.3,1.6-9.1,7.3-9.6,9.3l-0.1,0.5l0.5,0c7.3,0.6,9.1-5.1,9.8-9.4l0.1-0.4
			L269.9,46.6z"/>
		<path fill="#FFFFFF" d="M84.7,2.7h9.2V11h-9.2V2.7z M85.5,20.5h7.7v40.7h-7.7V20.5z"/>
		<path fill="#FFFFFF" d="M27.3,20.5H35v40.7h-7.5v-6h-0.2c-3.1,5.1-8.3,7.2-13.9,7.2C4.9,62.4,0,56,0,47.8V20.5h7.7v24.1
			c0,7.1,1.6,12.2,9,12.2c3.2,0,7.5-1.6,9.1-5.8c1.5-3.8,1.5-8.6,1.5-9.6V20.5z"/>
		<path fill="#FFFFFF" d="M50.4,26.5h0.2c2.6-5.1,8.3-7.2,12.3-7.2c2.8,0,15.4,0.7,15.4,13.8v28.1h-7.7V35.6
			c0-6.7-2.8-10.4-9.3-10.4c0,0-4.2-0.2-7.5,3c-1.1,1.1-3.2,2.9-3.2,10.9v22.1h-7.7V20.5h7.5V26.5z"/>
		<path fill="#FFFFFF" d="M125.4,33.6c-0.4-5.1-2.8-8.6-8.3-8.6c-7.3,0-10.1,6.4-10.1,15.9c0,9.5,2.8,15.9,10.1,15.9
			c5.1,0,8.2-3.3,8.6-9.1h7.7c-0.7,9.1-7.4,14.7-16.4,14.7c-13,0-18.1-9.2-18.1-21.1c0-11.9,6-21.8,18.8-21.8
			c8.5,0,15,5.4,15.4,14.2H125.4z"/>
		<path fill="#FFFFFF" d="M144.9,42.3c-0.6,7.1,2.3,14.4,10.1,14.4c6,0,8.9-2.3,9.8-8.2h8.1c-1.2,9.2-8.3,13.8-18,13.8
			c-13,0-18.1-9.2-18.1-21.1c0-11.9,6-21.8,18.8-21.8c12.1,0.3,17.8,7.9,17.8,19.1v3.8H144.9z M165.3,37c0.2-6.8-2.9-12-10.3-12
			c-6.4,0-10.1,5.4-10.1,12H165.3z"/>
		<path fill="#FFFFFF" d="M182,61.1V25.9h-7v-5.3h7v-8.7c0.3-8.9,6.9-11.2,12.7-11.2c1.8,0,3.6,0.5,5.5,0.8v6.4
			c-1.3-0.1-2.6-0.2-3.9-0.2c-4.3,0-6.8,1.1-6.6,5.6v7.4h9.4v5.3h-9.4v35.1H182z"/>
	</g>
</g>
</svg>
