<?xml version="1.0" encoding="utf-8"?>
<!-- Generator: Adobe Illustrator 17.1.0, SVG Export Plug-In . SVG Version: 6.00 Build 0)  -->
<!DOCTYPE svg PUBLIC "-//W3C//DTD SVG 1.1//EN" "http://www.w3.org/Graphics/SVG/1.1/DTD/svg11.dtd">
<svg version="1.1" id="Layer_1" xmlns="http://www.w3.org/2000/svg" xmlns:xlink="http://www.w3.org/1999/xlink" x="0px" y="0px"
	 viewBox="0 0 107.4 80" enable-background="new 0 0 107.4 80" xml:space="preserve">
<g>
	<path fill="#00ACED" d="M104.8,10.3c-2.1-2.4-5.4-3.9-8.9-3.9C89,6.5,83.3,11.5,82.7,18c-0.3,3.9,0.8,7.2,3.1,9.3
		c-0.1,0.3-0.3,0.5-0.4,0.8c-5.8,11.2-7.3,13.6-10,13.6c-0.3,0-0.6,0-0.9-0.1c-2.9-0.3-4.1-0.4-12.7-20c2.9-2.3,4.7-5.6,4.7-9.3
		c0.1-3.1-1.1-6.1-3.3-8.4C60.8,1.4,57.3,0,53.7,0c-3.7,0-7.1,1.4-9.6,3.9c-2.2,2.3-3.4,5.3-3.3,8.4c0.1,3.7,1.9,7,4.7,9.3
		c-8.6,19.6-9.8,19.7-12.7,20c-0.3,0-0.6,0.1-0.9,0.1c-2.7,0-4.2-2.4-10-13.6c-0.1-0.3-0.3-0.5-0.4-0.8c2.3-2.2,3.4-5.4,3.1-9.3
		c-0.5-6.5-6.3-11.5-13.2-11.5c-3.5,0-6.8,1.4-8.9,3.9c-2,2.3-2.9,5.3-2.5,8.4c0.7,5.2,4,9.3,8.5,10.7L10.5,40
		c0.1,0.9,0.3,1.7,0.5,2.6l3.2,17.8c-2.8,2.6-3.9,6.6-2.8,11.1C12.6,76.6,16,80,20,80h67.4c4,0,7.4-3.4,8.6-8.5
		c1-4.4-0.1-8.5-2.9-11.1l5.6-30.9c4.5-1.5,7.8-5.5,8.5-10.7C107.7,15.6,106.8,12.6,104.8,10.3z"/>
	<g>
		<g>
			<path fill="#FFFFFF" d="M78.9,58.5c-3.6,0-6.5,2.9-6.5,6.5c0,3.6,2.9,6.5,6.5,6.5c3.6,0,6.5-2.9,6.5-6.5
				C85.4,61.4,82.5,58.5,78.9,58.5 M84,61.4c-0.3,0.2-0.7,0.4-1,0.6c-0.2-0.4-0.5-0.8-0.8-1.2c0.3-0.2,0.5-0.3,0.8-0.5
				C83.3,60.6,83.7,61,84,61.4 M81.3,59.3c0.5,0.2,1,0.5,1.5,0.8c-0.2,0.2-0.5,0.4-0.7,0.5c-0.3-0.4-0.7-0.7-1.1-1
				C81.1,59.5,81.2,59.4,81.3,59.3 M81.8,60.7c-0.3,0.2-0.7,0.3-1.1,0.5c-0.2-0.4-0.3-0.7-0.5-1.1c0.2-0.1,0.4-0.2,0.6-0.3
				C81.1,60.1,81.5,60.4,81.8,60.7 M81,59.2c-0.1,0.1-0.2,0.2-0.3,0.3c-0.3-0.2-0.7-0.4-1.1-0.6C80.1,58.9,80.6,59,81,59.2
				 M80.5,59.6c-0.2,0.1-0.3,0.2-0.5,0.3c-0.2-0.3-0.4-0.6-0.6-0.9C79.8,59.2,80.2,59.4,80.5,59.6 M79.1,59.1
				c0.2,0.3,0.5,0.6,0.7,0.9c-0.2,0.1-0.4,0.1-0.7,0.1V59.1z M79.1,60.4c0.3,0,0.6-0.1,0.8-0.2c0.2,0.3,0.4,0.7,0.5,1
				c-0.4,0.1-0.9,0.2-1.3,0.2V60.4z M78.8,59.1v1c-0.2,0-0.4-0.1-0.7-0.1C78.3,59.7,78.6,59.4,78.8,59.1 M77.9,59.9
				c-0.2-0.1-0.3-0.2-0.5-0.3c0.4-0.2,0.7-0.4,1.1-0.6C78.3,59.3,78.1,59.6,77.9,59.9 M78.3,58.8c-0.4,0.2-0.8,0.4-1.1,0.6
				c-0.1-0.1-0.2-0.2-0.3-0.3C77.3,59,77.8,58.9,78.3,58.8 M82.7,70c-0.9-0.5-0.9-1.1-0.8-1.4c0-0.2,0.2-0.1,0.3-0.1
				c0.6,0,1.2-0.2,1.9-0.9c0.8-0.8,1.1-2.7-0.2-3.9c-1.4-1.3-2.8-1.1-3.8,0.1c-0.2,0.2-0.7,0.4-1.1,0.4c-0.6,0-0.2,0.5-0.2,0.6
				c0,0.1-0.1,0.2-0.1,0.2c-0.2-0.1-0.1,0.2-0.1,0.3c0,0.1-0.1,0.1-0.1,0.1c-0.3,0-0.2,0.2-0.2,0.3c0,0.1,0,0.2-0.1,0.2
				c-0.1,0-0.2,0.2-0.2,0.4c0,0.3,0.3,0.5,0.7,0.8c0.4,0.3,0.5,0.6,0.5,0.8c0,0.2,0,0.6,0.1,0.8c0.1,0.3,0.1,0.8-0.5,0.8
				c-0.7,0-2,0.6-2.1,0.6c-0.4,0.1-0.9,0.2-1.3,0.1c-0.2-0.2-0.4-0.3-0.6-0.5c-0.1-0.3,0.1-0.6,0.2-0.8c0.2,0.2,0.6,0.2,0.8,0.2
				c0.2,0,1.2-0.1,1.3-0.2c0.1,0,0.2,0,0.3,0c0.4,0.1,0.9,0.2,1.1-0.5c0.2-0.7-0.3-0.5-0.3-0.5c-0.1,0-0.1,0-0.1,0
				c0.1-0.2,0-0.2-0.1-0.2c-0.2,0-0.5,0.2-0.5,0.3c-0.1,0.1-0.2,0.1-0.2,0.1c-0.3-0.1-1,0.1-1.3-0.4c0-0.1-0.2-1.8-0.3-2.1
				c0-0.1,0-0.2,0-0.3c0.2-0.3,0.7,0,1,0c0.4,0,0.4-0.2,0.5-0.3c0.1-0.1,0.2-0.1,0.2-0.1c0.1,0,0-0.1,0-0.2c0,0,0,0,0.1-0.1
				c0.1-0.1,0-0.2,0-0.2c0.1-0.1,0.3,0,0.2-0.4c-0.1-0.2,0-0.4,0.1-0.5c0.2-0.2,0.8-1.2-0.3-2.1c-1.1-0.9-2.3-0.9-3-0.1
				c-0.7,0.8-0.4,2-0.3,2.3c0.1,0.3-0.1,0.6-0.4,0.7c-0.2,0.1-0.7,0.4-1,0.7c0.1-2.5,1.6-4.7,3.9-5.6c0.1,0.1,0.2,0.2,0.3,0.4
				c-0.3,0.2-0.8,0.7-0.8,0.7s0.1,0,0.1,0c0,0,0.2,0,0.2,0s0.5-0.4,0.7-0.6c0.2,0.1,0.4,0.3,0.6,0.3c-0.1,0.2-0.4,0.7-0.4,0.7
				s0.1,0,0.1,0.1c0.1,0,0.1,0.1,0.1,0.1s0.3-0.6,0.4-0.8c0.3,0.1,0.5,0.1,0.8,0.2v1.1c-0.2,0-0.5,0-0.7,0l-0.1,0l0.1,0.1
				c0,0.1,0.1,0.1,0.1,0.2l0,0l0,0c0.1,0,0.5,0,0.6,0v1.9h0.3v-0.4c0.4,0,0.7,0,1.1-0.1h0l0.3-0.3l-0.2,0c-0.4,0.1-0.8,0.1-1.1,0.1
				c0,0-0.1,0-0.2,0v-1.2c0.5,0,1-0.1,1.5-0.2c0.1,0.3,0.4,1.1,0.4,1.1l0.3-0.1c0,0-0.2-0.8-0.4-1.1c0.4-0.1,0.8-0.3,1.2-0.5
				c0.3,0.4,0.6,0.8,0.8,1.2c-0.2,0.1-0.5,0.2-0.5,0.2c0.3,0,0.5,0.1,0.5,0.1s0.1,0,0.2-0.1c0,0.1,0.1,0.2,0.1,0.2l0.3,0.2l0-0.1
				c0,0-0.1-0.3-0.1-0.3c0.4-0.2,0.7-0.4,1.1-0.6c0.7,1,1,2.2,1,3.4C85.2,67,84.2,68.8,82.7,70"/>
			<path fill="#FFFFFF" d="M71.9,60.3l-0.1,0.1c-0.4,0.3-1.2,1.2-1.1,2.2c0,0,0,0.1,0,0.1l0,0.2l0.1-0.1c0.5-0.5,0.9-1.3,1.1-2.3
				l0-0.3L71.9,60.3z"/>
			<path fill="#FFFFFF" d="M70.1,61.9l0,0.1c-0.1,0.2-0.2,0.5-0.2,1c-0.1,0.6-0.1,1.6,0.5,2.2c0,0,0.1,0.1,0.1,0.1l0.1,0.1l0.1-0.4
				c0.1-0.7,0-2.3-0.3-2.9l-0.1-0.2L70.1,61.9z"/>
			<path fill="#FFFFFF" d="M69.5,64.6l0,0.1c0,0.7,0,2.3,1.3,3.1l0.2,0.1l0-0.2c0-0.6-0.7-2.4-1.3-3.1l-0.2-0.2L69.5,64.6z"/>
			<path fill="#FFFFFF" d="M69.7,67.5l0,0.1c0.2,0.9,1.1,2.4,2.4,2.9l0.2,0.1l-0.1-0.2c-0.3-0.7-1.6-2.3-2.4-2.8l-0.2-0.1L69.7,67.5
				z"/>
			<path fill="#FFFFFF" d="M72.4,61.7l-0.1,0.1c-1,0.6-1.5,1.4-1.5,2.3l0,0.2l0.1-0.1c0.5-0.5,1.2-1.6,1.4-2.3l0.1-0.2L72.4,61.7z"
				/>
			<path fill="#FFFFFF" d="M71.8,63.7L71.8,63.7c-0.3,0.3-1.2,1.2-1.1,2.3c0,0.2,0.1,0.4,0.1,0.5l0.1,0.2l0.1-0.2
				c0.4-0.6,0.9-2.1,0.9-2.7L71.8,63.7L71.8,63.7z"/>
			<path fill="#FFFFFF" d="M71.9,65.6L71.9,65.6c-0.5,0.7-0.7,1.4-0.7,2c0,0.4,0.1,0.9,0.4,1.3l0.1,0.1l0.1-0.1
				c0.2-0.3,0.3-1.5,0.3-2.3c0-0.3,0-0.6-0.1-0.7L71.9,65.6L71.9,65.6z"/>
			<path fill="#FFFFFF" d="M72.4,67.7L72.4,67.7c-0.2,0.5-0.2,0.9-0.2,1.3c0,0.9,0.4,1.5,1.1,2l0.1,0.1l0-0.2c0,0,0-0.1,0-0.1
				c0-0.7-0.5-2.4-0.9-3L72.4,67.7L72.4,67.7z"/>
			<path fill="#FFFFFF" d="M70.9,70.4L70.9,70.4c0.6,1,1.5,2.2,3.3,1.9l0.1,0l-0.1-0.1c-0.3-0.5-2.4-1.7-3.2-1.8L70.9,70.4
				L70.9,70.4z"/>
			<path fill="#FFFFFF" d="M73.5,72.7L73.5,72.7l-0.3,0.1l0.3,0.1c1.1,0.5,2.5,0.6,3.3,0.3c0.3-0.1,0.5-0.3,0.7-0.5
				c1.4,0.1,2.7,1.3,3.5,2.3l0,0l0.1,0c0.1,0,0.2-0.1,0.3-0.2l0.1-0.1l0-0.1c-0.8-1-2.1-1.7-2.1-1.7C78.1,72.4,76.1,72,73.5,72.7"/>
			<path fill="#FFFFFF" d="M73.6,69.8L73.6,69.8c0.2,1.1,0.6,2.5,2.4,2.3l0.1,0l0-0.1c-0.1-0.5-1.7-1.8-2.3-2.2L73.6,69.8L73.6,69.8
				z"/>
			<path fill="#FFFFFF" d="M85.9,60.2l0,0.3c0.2,1,0.6,1.8,1.1,2.3l0.1,0.1l0-0.2c0,0,0-0.1,0-0.1c0.1-1-0.7-1.9-1.1-2.2L86,60.3
				L85.9,60.2z"/>
		</g>
		<g>
			<path fill="#FFFFFF" d="M87.8,61.8l-0.1,0.2c-0.3,0.7-0.4,2.2-0.3,2.9l0.1,0.4l0.1-0.1c0,0,0.1-0.1,0.1-0.1
				c0.6-0.7,0.6-1.6,0.5-2.2c-0.1-0.5-0.2-0.8-0.2-1l0-0.1L87.8,61.8z"/>
			<path fill="#FFFFFF" d="M88.4,64.5l-0.2,0.2c-0.5,0.7-1.3,2.5-1.3,3.1l0,0.2l0.2-0.1c1.3-0.9,1.3-2.5,1.3-3.1l0-0.1L88.4,64.5z"
				/>
		</g>
		<g>
			<path fill="#FFFFFF" d="M88.3,67.4l-0.2,0.1c-0.8,0.5-2.2,2.2-2.4,2.8l-0.1,0.2l0.2-0.1c1.4-0.4,2.2-1.9,2.4-2.9l0-0.1L88.3,67.4
				z"/>
			<path fill="#FFFFFF" d="M85.4,61.6l0.1,0.2c0.2,0.7,0.9,1.8,1.4,2.3l0.1,0.1l0-0.2c0.1-0.9-0.4-1.7-1.4-2.3l-0.1-0.1L85.4,61.6z"
				/>
			<path fill="#FFFFFF" d="M86,63.6l0,0.2c0,0.7,0.5,2.2,0.9,2.7l0.1,0.2l0.1-0.2c0.1-0.2,0.1-0.4,0.1-0.5c0.1-1.1-0.8-2-1-2.2
				L86,63.6L86,63.6z"/>
			<path fill="#FFFFFF" d="M86,65.5l-0.1,0.2c-0.1,0.2-0.1,0.4-0.1,0.7c0,0.9,0.1,2,0.3,2.3l0.1,0.1l0.1-0.1
				c0.3-0.4,0.4-0.8,0.4-1.3c0-0.6-0.2-1.2-0.6-1.9L86,65.5L86,65.5z"/>
			<path fill="#FFFFFF" d="M85.5,67.6l-0.1,0.1c-0.4,0.5-0.9,2.3-0.9,3c0,0,0,0.1,0,0.1l0,0.2l0.1-0.1c0.7-0.5,1.1-1.1,1.1-2
				c0-0.4,0-0.8-0.2-1.2L85.5,67.6L85.5,67.6z"/>
			<path fill="#FFFFFF" d="M87,70.3l-0.2,0c-0.7,0.1-2.8,1.3-3.2,1.8l-0.1,0.1l0.1,0c1.7,0.3,2.7-0.9,3.2-1.8L87,70.3L87,70.3z"/>
			<path fill="#FFFFFF" d="M78.7,73c-0.1,0-1.3,0.7-2.1,1.7l0,0.1l0.1,0.1c0.1,0.1,0.2,0.2,0.3,0.2l0.1,0l0,0c0.8-1,2.1-2.1,3.5-2.3
				c0.2,0.2,0.4,0.4,0.7,0.5c0.8,0.3,2.2,0.1,3.3-0.3l0.3-0.1l-0.3-0.1C81.8,72,79.8,72.4,78.7,73"/>
			<path fill="#FFFFFF" d="M84.4,69.7l-0.2,0.1c-0.6,0.4-2.2,1.8-2.3,2.2l0,0.1l0.1,0c1.8,0.2,2.2-1.2,2.3-2.2L84.4,69.7L84.4,69.7z
				"/>
			<path fill="#FFFFFF" d="M40.1,59.2h2.2v2h-2.2V59.2z M40.3,63.4h1.8v9.7h-1.8V63.4z"/>
			<path fill="#FFFFFF" d="M26.4,63.4h1.8v9.7h-1.8v-1.4h0c-0.7,1.2-2,1.7-3.3,1.7c-2,0-3.2-1.6-3.2-3.5v-6.5h1.8v5.8
				c0,1.7,0.4,2.9,2.2,2.9c0.8,0,1.8-0.4,2.2-1.4c0.3-0.9,0.4-2.1,0.4-2.3V63.4z"/>
			<path fill="#FFFFFF" d="M31.9,64.9L31.9,64.9c0.7-1.2,2-1.7,3-1.7c0.7,0,3.7,0.2,3.7,3.3v6.7h-1.8v-6.1c0-1.6-0.7-2.5-2.2-2.5
				c0,0-1-0.1-1.8,0.7c-0.3,0.3-0.8,0.7-0.8,2.6v5.3h-1.8v-9.7h1.8V64.9z"/>
			<path fill="#FFFFFF" d="M49.8,66.6c-0.1-1.2-0.7-2.1-2-2.1c-1.7,0-2.4,1.5-2.4,3.8c0,2.3,0.7,3.8,2.4,3.8c1.2,0,2-0.8,2.1-2.2
				h1.8c-0.2,2.2-1.8,3.5-3.9,3.5c-3.1,0-4.3-2.2-4.3-5c0-2.8,1.4-5.2,4.5-5.2c2,0,3.6,1.3,3.7,3.4H49.8z"/>
			<path fill="#FFFFFF" d="M54.5,68.6c-0.1,1.7,0.6,3.4,2.4,3.4c1.4,0,2.1-0.6,2.3-2h1.9c-0.3,2.2-2,3.3-4.3,3.3
				c-3.1,0-4.3-2.2-4.3-5c0-2.8,1.4-5.2,4.5-5.2c2.9,0.1,4.3,1.9,4.3,4.6v0.9H54.5z M59.4,67.4c0-1.6-0.7-2.9-2.5-2.9
				c-1.5,0-2.4,1.3-2.4,2.9H59.4z"/>
			<path fill="#FFFFFF" d="M63.4,73.1v-8.4h-1.7v-1.3h1.7v-2.1c0.1-2.1,1.7-2.7,3-2.7c0.4,0,0.9,0.1,1.3,0.2v1.5
				c-0.3,0-0.6-0.1-0.9-0.1c-1,0-1.6,0.3-1.6,1.3v1.8h2.2v1.3h-2.2v8.4H63.4z"/>
		</g>
	</g>
</g>
</svg>
